STARTFONT 2.1
COMMENT
COMMENT Converted from OpenType font "LeagueSpartan-Light.otf" by "otf2bdf 3.0".
COMMENT
FONT -FreeType-League Spartan Light-Medium-R-Normal--15-110-100-100-P-67-ISO10646-1
SIZE 11 100 100
FONTBOUNDINGBOX 19 21 -2 -4
STARTPROPERTIES 19
FOUNDRY "FreeType"
FAMILY_NAME "League Spartan Light"
WEIGHT_NAME "Medium"
SLANT "R"
SETWIDTH_NAME "Normal"
ADD_STYLE_NAME ""
PIXEL_SIZE 15
POINT_SIZE 110
RESOLUTION_X 100
RESOLUTION_Y 100
SPACING "P"
AVERAGE_WIDTH 67
CHARSET_REGISTRY "ISO10646"
CHARSET_ENCODING "1"
FONT_ASCENT 10
FONT_DESCENT 3
COPYRIGHT "OFL"
_OTF_FONTFILE "LeagueSpartan-Light.otf"
_OTF_PSNAME "LeagueSpartan-Light"
ENDPROPERTIES
CHARS 561
STARTCHAR 000D
ENCODING 13
SWIDTH 589 0
DWIDTH 9 0
BBX 0 0 0 0
BITMAP
ENDCHAR
STARTCHAR 0020
ENCODING 32
SWIDTH 261 0
DWIDTH 4 0
BBX 0 0 0 0
BITMAP
ENDCHAR
STARTCHAR 0021
ENCODING 33
SWIDTH 327 0
DWIDTH 5 0
BBX 2 11 1 0
BITMAP
40
40
40
40
40
40
40
40
00
40
C0
ENDCHAR
STARTCHAR 0022
ENCODING 34
SWIDTH 392 0
DWIDTH 6 0
BBX 3 3 1 7
BITMAP
A0
A0
A0
ENDCHAR
STARTCHAR 0023
ENCODING 35
SWIDTH 589 0
DWIDTH 9 0
BBX 7 11 1 0
BITMAP
12
14
24
7E
24
28
48
FC
48
50
90
ENDCHAR
STARTCHAR 0024
ENCODING 36
SWIDTH 523 0
DWIDTH 8 0
BBX 6 13 1 -1
BITMAP
20
78
80
80
80
60
10
08
04
04
04
F8
20
ENDCHAR
STARTCHAR 0025
ENCODING 37
SWIDTH 720 0
DWIDTH 11 0
BBX 9 11 1 0
BITMAP
0200
E200
9400
A400
4800
0800
1300
1480
2480
4300
4000
ENDCHAR
STARTCHAR 0026
ENCODING 38
SWIDTH 654 0
DWIDTH 10 0
BBX 8 11 1 0
BITMAP
38
44
44
44
28
70
88
85
82
86
79
ENDCHAR
STARTCHAR 0027
ENCODING 39
SWIDTH 196 0
DWIDTH 3 0
BBX 1 3 1 7
BITMAP
80
80
80
ENDCHAR
STARTCHAR 0028
ENCODING 40
SWIDTH 327 0
DWIDTH 5 0
BBX 2 13 1 -2
BITMAP
40
40
80
80
80
80
80
80
80
80
80
40
40
ENDCHAR
STARTCHAR 0029
ENCODING 41
SWIDTH 327 0
DWIDTH 5 0
BBX 2 13 1 -2
BITMAP
80
80
80
40
40
40
40
40
40
40
40
80
80
ENDCHAR
STARTCHAR 002A
ENCODING 42
SWIDTH 392 0
DWIDTH 6 0
BBX 4 3 1 6
BITMAP
40
D0
60
ENDCHAR
STARTCHAR 002B
ENCODING 43
SWIDTH 523 0
DWIDTH 8 0
BBX 6 5 1 3
BITMAP
20
20
FC
20
20
ENDCHAR
STARTCHAR 002C
ENCODING 44
SWIDTH 261 0
DWIDTH 4 0
BBX 2 4 1 -2
BITMAP
C0
C0
40
80
ENDCHAR
STARTCHAR 002D
ENCODING 45
SWIDTH 392 0
DWIDTH 6 0
BBX 4 1 1 3
BITMAP
F0
ENDCHAR
STARTCHAR 002E
ENCODING 46
SWIDTH 327 0
DWIDTH 5 0
BBX 2 2 1 0
BITMAP
40
C0
ENDCHAR
STARTCHAR 002F
ENCODING 47
SWIDTH 458 0
DWIDTH 7 0
BBX 6 12 0 -1
BITMAP
04
04
08
08
10
10
10
20
20
40
40
80
ENDCHAR
STARTCHAR 0030
ENCODING 48
SWIDTH 589 0
DWIDTH 9 0
BBX 7 11 1 0
BITMAP
38
44
84
82
82
82
82
82
84
44
38
ENDCHAR
STARTCHAR 0031
ENCODING 49
SWIDTH 327 0
DWIDTH 5 0
BBX 3 11 0 0
BITMAP
20
E0
20
20
20
20
20
20
20
20
20
ENDCHAR
STARTCHAR 0032
ENCODING 50
SWIDTH 523 0
DWIDTH 8 0
BBX 6 11 1 0
BITMAP
78
84
04
04
04
08
18
10
20
40
FC
ENDCHAR
STARTCHAR 0033
ENCODING 51
SWIDTH 523 0
DWIDTH 8 0
BBX 6 11 1 0
BITMAP
70
88
04
04
08
38
04
04
04
88
70
ENDCHAR
STARTCHAR 0034
ENCODING 52
SWIDTH 458 0
DWIDTH 7 0
BBX 7 11 0 0
BITMAP
08
08
18
18
28
28
48
48
FE
08
08
ENDCHAR
STARTCHAR 0035
ENCODING 53
SWIDTH 523 0
DWIDTH 8 0
BBX 6 11 1 0
BITMAP
7C
40
80
80
B8
C4
04
04
04
8C
78
ENDCHAR
STARTCHAR 0036
ENCODING 54
SWIDTH 523 0
DWIDTH 8 0
BBX 6 11 1 0
BITMAP
10
10
20
40
F8
84
84
84
84
84
78
ENDCHAR
STARTCHAR 0037
ENCODING 55
SWIDTH 523 0
DWIDTH 8 0
BBX 6 11 1 0
BITMAP
FC
04
08
08
10
10
20
20
40
40
80
ENDCHAR
STARTCHAR 0038
ENCODING 56
SWIDTH 523 0
DWIDTH 8 0
BBX 6 11 1 0
BITMAP
78
48
84
84
48
78
84
84
84
84
78
ENDCHAR
STARTCHAR 0039
ENCODING 57
SWIDTH 523 0
DWIDTH 8 0
BBX 7 11 1 0
BITMAP
78
84
84
82
84
84
7C
08
10
20
20
ENDCHAR
STARTCHAR 003A
ENCODING 58
SWIDTH 261 0
DWIDTH 4 0
BBX 2 7 1 0
BITMAP
80
C0
00
00
00
80
C0
ENDCHAR
STARTCHAR 003B
ENCODING 59
SWIDTH 261 0
DWIDTH 4 0
BBX 2 9 1 -2
BITMAP
80
C0
00
00
00
80
C0
40
80
ENDCHAR
STARTCHAR 003C
ENCODING 60
SWIDTH 523 0
DWIDTH 8 0
BBX 6 7 1 2
BITMAP
04
18
60
80
40
30
0C
ENDCHAR
STARTCHAR 003D
ENCODING 61
SWIDTH 523 0
DWIDTH 8 0
BBX 6 4 1 3
BITMAP
FC
00
00
FC
ENDCHAR
STARTCHAR 003E
ENCODING 62
SWIDTH 523 0
DWIDTH 8 0
BBX 6 6 1 3
BITMAP
C0
30
0C
18
60
80
ENDCHAR
STARTCHAR 003F
ENCODING 63
SWIDTH 458 0
DWIDTH 7 0
BBX 5 11 1 0
BITMAP
70
88
08
08
10
20
20
20
00
20
60
ENDCHAR
STARTCHAR 0040
ENCODING 64
SWIDTH 785 0
DWIDTH 12 0
BBX 11 11 0 0
BITMAP
0F00
30C0
4040
4F20
9120
9120
9120
4EC0
4000
2080
1F00
ENDCHAR
STARTCHAR 0041
ENCODING 65
SWIDTH 589 0
DWIDTH 9 0
BBX 8 11 0 0
BITMAP
08
18
14
14
24
22
22
7E
41
41
81
ENDCHAR
STARTCHAR 0042
ENCODING 66
SWIDTH 523 0
DWIDTH 8 0
BBX 6 11 1 0
BITMAP
F8
88
84
88
88
F0
8C
84
84
84
F8
ENDCHAR
STARTCHAR 0043
ENCODING 67
SWIDTH 654 0
DWIDTH 10 0
BBX 9 11 0 0
BITMAP
1F00
2080
4000
4000
8000
8000
8000
4000
4000
2080
1F00
ENDCHAR
STARTCHAR 0044
ENCODING 68
SWIDTH 523 0
DWIDTH 8 0
BBX 7 11 1 0
BITMAP
F0
88
84
84
82
82
82
84
84
88
F0
ENDCHAR
STARTCHAR 0045
ENCODING 69
SWIDTH 523 0
DWIDTH 8 0
BBX 6 11 1 0
BITMAP
FC
80
80
80
80
FC
80
80
80
80
FC
ENDCHAR
STARTCHAR 0046
ENCODING 70
SWIDTH 458 0
DWIDTH 7 0
BBX 5 11 1 0
BITMAP
F8
80
80
80
80
F8
80
80
80
80
80
ENDCHAR
STARTCHAR 0047
ENCODING 71
SWIDTH 720 0
DWIDTH 11 0
BBX 10 11 0 0
BITMAP
1E00
2180
4080
4000
8000
87C0
8040
4040
4080
2180
1E00
ENDCHAR
STARTCHAR 0048
ENCODING 72
SWIDTH 589 0
DWIDTH 9 0
BBX 7 11 1 0
BITMAP
82
82
82
82
82
FE
82
82
82
82
82
ENDCHAR
STARTCHAR 0049
ENCODING 73
SWIDTH 196 0
DWIDTH 3 0
BBX 1 11 1 0
BITMAP
80
80
80
80
80
80
80
80
80
80
80
ENDCHAR
STARTCHAR 004A
ENCODING 74
SWIDTH 392 0
DWIDTH 6 0
BBX 5 11 0 0
BITMAP
08
08
08
08
08
08
08
08
08
88
F0
ENDCHAR
STARTCHAR 004B
ENCODING 75
SWIDTH 458 0
DWIDTH 7 0
BBX 6 11 1 0
BITMAP
88
88
90
A0
C0
C0
C0
A0
90
88
84
ENDCHAR
STARTCHAR 004C
ENCODING 76
SWIDTH 458 0
DWIDTH 7 0
BBX 5 11 1 0
BITMAP
80
80
80
80
80
80
80
80
80
80
F8
ENDCHAR
STARTCHAR 004D
ENCODING 77
SWIDTH 720 0
DWIDTH 11 0
BBX 8 11 1 0
BITMAP
81
83
C3
C3
C3
A5
A5
A5
99
99
89
ENDCHAR
STARTCHAR 004E
ENCODING 78
SWIDTH 654 0
DWIDTH 10 0
BBX 8 11 1 0
BITMAP
81
C1
A1
A1
91
91
89
89
85
83
83
ENDCHAR
STARTCHAR 004F
ENCODING 79
SWIDTH 720 0
DWIDTH 11 0
BBX 10 11 0 0
BITMAP
1E00
2180
4080
4040
8040
8040
8040
4040
4080
2180
1E00
ENDCHAR
STARTCHAR 0050
ENCODING 80
SWIDTH 523 0
DWIDTH 8 0
BBX 6 11 1 0
BITMAP
F8
88
84
84
84
88
F0
80
80
80
80
ENDCHAR
STARTCHAR 0051
ENCODING 81
SWIDTH 720 0
DWIDTH 11 0
BBX 10 13 0 -2
BITMAP
1E00
2180
4080
4040
8040
8040
8040
4040
4040
2080
1F00
1640
01C0
ENDCHAR
STARTCHAR 0052
ENCODING 82
SWIDTH 523 0
DWIDTH 8 0
BBX 6 11 1 0
BITMAP
F8
84
84
84
84
F8
90
88
88
84
84
ENDCHAR
STARTCHAR 0053
ENCODING 83
SWIDTH 523 0
DWIDTH 8 0
BBX 6 11 1 0
BITMAP
78
80
80
80
60
10
08
04
04
04
F8
ENDCHAR
STARTCHAR 0054
ENCODING 84
SWIDTH 458 0
DWIDTH 7 0
BBX 7 11 0 0
BITMAP
FE
10
10
10
10
10
10
10
10
10
10
ENDCHAR
STARTCHAR 0055
ENCODING 85
SWIDTH 589 0
DWIDTH 9 0
BBX 7 11 1 0
BITMAP
82
82
82
82
82
82
82
82
82
46
38
ENDCHAR
STARTCHAR 0056
ENCODING 86
SWIDTH 589 0
DWIDTH 9 0
BBX 9 11 0 0
BITMAP
8080
4100
4100
4200
2200
2200
2400
1400
1400
1800
0800
ENDCHAR
STARTCHAR 0057
ENCODING 87
SWIDTH 785 0
DWIDTH 12 0
BBX 11 11 0 0
BITMAP
8420
8620
4A20
4A40
4A40
4A40
5140
3140
3140
3180
3080
ENDCHAR
STARTCHAR 0058
ENCODING 88
SWIDTH 589 0
DWIDTH 9 0
BBX 8 11 0 0
BITMAP
41
42
24
14
18
18
14
24
22
41
81
ENDCHAR
STARTCHAR 0059
ENCODING 89
SWIDTH 523 0
DWIDTH 8 0
BBX 7 11 0 0
BITMAP
82
42
44
24
28
18
18
10
10
10
10
ENDCHAR
STARTCHAR 005A
ENCODING 90
SWIDTH 589 0
DWIDTH 9 0
BBX 7 11 1 0
BITMAP
FE
04
08
08
10
10
20
60
40
80
FE
ENDCHAR
STARTCHAR 005B
ENCODING 91
SWIDTH 327 0
DWIDTH 5 0
BBX 3 15 1 -4
BITMAP
E0
80
80
80
80
80
80
80
80
80
80
80
80
80
E0
ENDCHAR
STARTCHAR 005C
ENCODING 92
SWIDTH 458 0
DWIDTH 7 0
BBX 5 11 1 0
BITMAP
80
80
80
40
40
20
20
10
10
08
08
ENDCHAR
STARTCHAR 005D
ENCODING 93
SWIDTH 327 0
DWIDTH 5 0
BBX 3 15 1 -4
BITMAP
E0
20
20
20
20
20
20
20
20
20
20
20
20
20
E0
ENDCHAR
STARTCHAR 005E
ENCODING 94
SWIDTH 458 0
DWIDTH 7 0
BBX 5 3 1 8
BITMAP
60
90
88
ENDCHAR
STARTCHAR 005F
ENCODING 95
SWIDTH 392 0
DWIDTH 6 0
BBX 6 1 0 -1
BITMAP
FC
ENDCHAR
STARTCHAR 0060
ENCODING 96
SWIDTH 327 0
DWIDTH 5 0
BBX 3 2 1 8
BITMAP
80
60
ENDCHAR
STARTCHAR 0061
ENCODING 97
SWIDTH 523 0
DWIDTH 8 0
BBX 7 7 0 0
BITMAP
3A
46
82
82
82
46
3A
ENDCHAR
STARTCHAR 0062
ENCODING 98
SWIDTH 523 0
DWIDTH 8 0
BBX 6 11 1 0
BITMAP
80
80
80
80
B8
C4
84
84
84
84
F8
ENDCHAR
STARTCHAR 0063
ENCODING 99
SWIDTH 392 0
DWIDTH 6 0
BBX 6 7 0 0
BITMAP
38
40
80
80
80
40
3C
ENDCHAR
STARTCHAR 0064
ENCODING 100
SWIDTH 523 0
DWIDTH 8 0
BBX 6 11 1 0
BITMAP
04
04
04
04
74
8C
84
84
84
84
7C
ENDCHAR
STARTCHAR 0065
ENCODING 101
SWIDTH 458 0
DWIDTH 7 0
BBX 6 7 0 0
BITMAP
38
44
84
FC
80
44
38
ENDCHAR
STARTCHAR 0066
ENCODING 102
SWIDTH 327 0
DWIDTH 5 0
BBX 5 11 0 0
BITMAP
38
20
40
40
F0
40
40
40
40
40
40
ENDCHAR
STARTCHAR 0067
ENCODING 103
SWIDTH 523 0
DWIDTH 8 0
BBX 7 11 0 -4
BITMAP
3A
46
82
82
82
46
3A
02
02
44
38
ENDCHAR
STARTCHAR 0068
ENCODING 104
SWIDTH 523 0
DWIDTH 8 0
BBX 5 11 1 0
BITMAP
80
80
80
80
B8
C8
88
88
88
88
88
ENDCHAR
STARTCHAR 0069
ENCODING 105
SWIDTH 196 0
DWIDTH 3 0
BBX 1 11 1 0
BITMAP
80
00
00
00
80
80
80
80
80
80
80
ENDCHAR
STARTCHAR 006A
ENCODING 106
SWIDTH 196 0
DWIDTH 3 0
BBX 3 15 -1 -4
BITMAP
20
00
00
00
20
20
20
20
20
20
20
20
20
20
E0
ENDCHAR
STARTCHAR 006B
ENCODING 107
SWIDTH 392 0
DWIDTH 6 0
BBX 4 11 1 0
BITMAP
80
80
80
80
90
A0
C0
80
C0
A0
90
ENDCHAR
STARTCHAR 006C
ENCODING 108
SWIDTH 196 0
DWIDTH 3 0
BBX 1 11 1 0
BITMAP
80
80
80
80
80
80
80
80
80
80
80
ENDCHAR
STARTCHAR 006D
ENCODING 109
SWIDTH 720 0
DWIDTH 11 0
BBX 9 7 1 0
BITMAP
F700
8880
8880
8880
8880
8880
8880
ENDCHAR
STARTCHAR 006E
ENCODING 110
SWIDTH 523 0
DWIDTH 8 0
BBX 5 7 1 0
BITMAP
B8
C8
88
88
88
88
88
ENDCHAR
STARTCHAR 006F
ENCODING 111
SWIDTH 523 0
DWIDTH 8 0
BBX 7 7 0 0
BITMAP
38
44
82
82
82
44
38
ENDCHAR
STARTCHAR 0070
ENCODING 112
SWIDTH 523 0
DWIDTH 8 0
BBX 6 11 1 -4
BITMAP
B8
C4
84
84
84
84
F8
80
80
80
80
ENDCHAR
STARTCHAR 0071
ENCODING 113
SWIDTH 523 0
DWIDTH 8 0
BBX 6 11 1 -4
BITMAP
74
8C
84
84
84
8C
74
04
04
04
04
ENDCHAR
STARTCHAR 0072
ENCODING 114
SWIDTH 327 0
DWIDTH 5 0
BBX 4 7 1 0
BITMAP
F0
80
80
80
80
80
80
ENDCHAR
STARTCHAR 0073
ENCODING 115
SWIDTH 392 0
DWIDTH 6 0
BBX 4 7 1 0
BITMAP
F0
80
80
60
10
10
E0
ENDCHAR
STARTCHAR 0074
ENCODING 116
SWIDTH 327 0
DWIDTH 5 0
BBX 4 9 0 1
BITMAP
40
40
F0
40
40
40
40
20
30
ENDCHAR
STARTCHAR 0075
ENCODING 117
SWIDTH 523 0
DWIDTH 8 0
BBX 5 7 1 0
BITMAP
88
88
88
88
88
88
70
ENDCHAR
STARTCHAR 0076
ENCODING 118
SWIDTH 458 0
DWIDTH 7 0
BBX 6 7 0 0
BITMAP
84
44
44
48
28
28
10
ENDCHAR
STARTCHAR 0077
ENCODING 119
SWIDTH 654 0
DWIDTH 10 0
BBX 9 7 0 0
BITMAP
8880
4880
5500
5500
5500
6300
2200
ENDCHAR
STARTCHAR 0078
ENCODING 120
SWIDTH 458 0
DWIDTH 7 0
BBX 5 7 1 0
BITMAP
88
50
50
20
50
88
88
ENDCHAR
STARTCHAR 0079
ENCODING 121
SWIDTH 458 0
DWIDTH 7 0
BBX 6 11 0 -4
BITMAP
84
44
48
48
28
30
30
10
20
20
40
ENDCHAR
STARTCHAR 007A
ENCODING 122
SWIDTH 392 0
DWIDTH 6 0
BBX 5 7 1 0
BITMAP
F0
10
20
40
40
80
F8
ENDCHAR
STARTCHAR 007B
ENCODING 123
SWIDTH 327 0
DWIDTH 5 0
BBX 3 15 1 -4
BITMAP
60
40
40
40
40
40
40
80
40
40
40
40
40
40
60
ENDCHAR
STARTCHAR 007C
ENCODING 124
SWIDTH 196 0
DWIDTH 3 0
BBX 1 13 1 -2
BITMAP
80
80
80
80
80
80
80
80
80
80
80
80
80
ENDCHAR
STARTCHAR 007D
ENCODING 125
SWIDTH 392 0
DWIDTH 6 0
BBX 3 15 2 -4
BITMAP
80
40
40
40
40
40
40
60
40
40
40
40
40
40
80
ENDCHAR
STARTCHAR 007E
ENCODING 126
SWIDTH 589 0
DWIDTH 9 0
BBX 7 2 1 4
BITMAP
62
9C
ENDCHAR
STARTCHAR 00A0
ENCODING 160
SWIDTH 261 0
DWIDTH 4 0
BBX 0 0 0 0
BITMAP
ENDCHAR
STARTCHAR 00A1
ENCODING 161
SWIDTH 327 0
DWIDTH 5 0
BBX 1 11 2 0
BITMAP
80
80
00
80
80
80
80
80
80
80
80
ENDCHAR
STARTCHAR 00A2
ENCODING 162
SWIDTH 392 0
DWIDTH 6 0
BBX 6 9 0 -1
BITMAP
10
38
40
80
80
80
40
3C
10
ENDCHAR
STARTCHAR 00A3
ENCODING 163
SWIDTH 589 0
DWIDTH 9 0
BBX 7 11 1 0
BITMAP
38
44
80
80
40
40
F8
20
20
62
9E
ENDCHAR
STARTCHAR 00A4
ENCODING 164
SWIDTH 458 0
DWIDTH 7 0
BBX 7 7 0 1
BITMAP
BA
44
82
82
82
44
BA
ENDCHAR
STARTCHAR 00A5
ENCODING 165
SWIDTH 523 0
DWIDTH 8 0
BBX 7 11 0 0
BITMAP
82
42
44
24
28
18
7E
10
7E
10
10
ENDCHAR
STARTCHAR 00A6
ENCODING 166
SWIDTH 196 0
DWIDTH 3 0
BBX 1 11 1 0
BITMAP
80
80
80
80
00
00
00
80
80
80
80
ENDCHAR
STARTCHAR 00A7
ENCODING 167
SWIDTH 523 0
DWIDTH 8 0
BBX 6 15 1 -4
BITMAP
78
84
80
40
60
58
84
84
C4
38
08
04
04
88
78
ENDCHAR
STARTCHAR 00A8
ENCODING 168
SWIDTH 458 0
DWIDTH 7 0
BBX 5 1 1 8
BITMAP
D8
ENDCHAR
STARTCHAR 00A9
ENCODING 169
SWIDTH 785 0
DWIDTH 12 0
BBX 11 11 0 0
BITMAP
1F00
2080
4040
8440
8A20
9020
9020
8E20
4040
2080
1F00
ENDCHAR
STARTCHAR 00AA
ENCODING 170
SWIDTH 392 0
DWIDTH 6 0
BBX 4 5 1 6
BITMAP
70
90
90
90
60
ENDCHAR
STARTCHAR 00AB
ENCODING 171
SWIDTH 458 0
DWIDTH 7 0
BBX 5 5 1 0
BITMAP
48
90
A0
90
48
ENDCHAR
STARTCHAR 00AC
ENCODING 172
SWIDTH 392 0
DWIDTH 6 0
BBX 4 3 1 1
BITMAP
F0
10
10
ENDCHAR
STARTCHAR 00AD
ENCODING 173
SWIDTH 392 0
DWIDTH 6 0
BBX 4 1 1 3
BITMAP
F0
ENDCHAR
STARTCHAR 00AE
ENCODING 174
SWIDTH 458 0
DWIDTH 7 0
BBX 6 6 0 5
BITMAP
38
C8
B4
B4
84
78
ENDCHAR
STARTCHAR 00AF
ENCODING 175
SWIDTH 458 0
DWIDTH 7 0
BBX 5 1 1 8
BITMAP
F8
ENDCHAR
STARTCHAR 00B0
ENCODING 176
SWIDTH 261 0
DWIDTH 4 0
BBX 2 1 1 9
BITMAP
C0
ENDCHAR
STARTCHAR 00B1
ENCODING 177
SWIDTH 523 0
DWIDTH 8 0
BBX 6 8 1 2
BITMAP
20
20
FC
20
20
00
00
FC
ENDCHAR
STARTCHAR 00B2
ENCODING 178
SWIDTH 261 0
DWIDTH 4 0
BBX 2 4 1 7
BITMAP
C0
40
40
80
ENDCHAR
STARTCHAR 00B3
ENCODING 179
SWIDTH 196 0
DWIDTH 3 0
BBX 3 4 0 7
BITMAP
60
20
20
E0
ENDCHAR
STARTCHAR 00B4
ENCODING 180
SWIDTH 458 0
DWIDTH 7 0
BBX 3 2 2 8
BITMAP
20
C0
ENDCHAR
STARTCHAR 00B5
ENCODING 181
SWIDTH 523 0
DWIDTH 8 0
BBX 5 10 1 -3
BITMAP
88
88
88
88
88
88
F0
80
80
80
ENDCHAR
STARTCHAR 00B6
ENCODING 182
SWIDTH 458 0
DWIDTH 7 0
BBX 5 11 1 0
BITMAP
78
F8
F8
F8
F8
78
18
18
18
18
18
ENDCHAR
STARTCHAR 00B7
ENCODING 183
SWIDTH 261 0
DWIDTH 4 0
BBX 2 2 1 2
BITMAP
C0
80
ENDCHAR
STARTCHAR 00B8
ENCODING 184
SWIDTH 392 0
DWIDTH 6 0
BBX 4 3 1 -3
BITMAP
40
30
E0
ENDCHAR
STARTCHAR 00B9
ENCODING 185
SWIDTH 130 0
DWIDTH 2 0
BBX 1 3 0 7
BITMAP
80
80
80
ENDCHAR
STARTCHAR 00BA
ENCODING 186
SWIDTH 392 0
DWIDTH 6 0
BBX 4 5 1 6
BITMAP
60
90
90
90
60
ENDCHAR
STARTCHAR 00BB
ENCODING 187
SWIDTH 458 0
DWIDTH 7 0
BBX 5 5 1 0
BITMAP
A0
90
48
48
90
ENDCHAR
STARTCHAR 00BC
ENCODING 188
SWIDTH 654 0
DWIDTH 10 0
BBX 8 11 1 0
BITMAP
C2
44
44
48
48
51
13
25
29
47
41
ENDCHAR
STARTCHAR 00BD
ENCODING 189
SWIDTH 720 0
DWIDTH 11 0
BBX 9 11 1 0
BITMAP
C200
4400
4400
4800
4800
5780
1080
2080
2100
4100
4700
ENDCHAR
STARTCHAR 00BE
ENCODING 190
SWIDTH 720 0
DWIDTH 11 0
BBX 9 11 1 0
BITMAP
E100
2100
2200
2200
2400
2480
C980
1280
1280
2180
2080
ENDCHAR
STARTCHAR 00BF
ENCODING 191
SWIDTH 458 0
DWIDTH 7 0
BBX 6 11 0 0
BITMAP
30
10
00
10
10
10
60
80
80
84
78
ENDCHAR
STARTCHAR 00C0
ENCODING 192
SWIDTH 589 0
DWIDTH 9 0
BBX 8 13 0 1
BITMAP
10
00
08
18
14
14
24
22
22
7E
41
41
81
ENDCHAR
STARTCHAR 00C1
ENCODING 193
SWIDTH 589 0
DWIDTH 9 0
BBX 8 14 0 0
BITMAP
04
08
00
08
18
14
14
24
22
22
7E
41
41
81
ENDCHAR
STARTCHAR 00C2
ENCODING 194
SWIDTH 589 0
DWIDTH 9 0
BBX 8 14 0 0
BITMAP
08
14
00
08
18
14
14
24
22
22
7E
41
41
81
ENDCHAR
STARTCHAR 00C3
ENCODING 195
SWIDTH 589 0
DWIDTH 9 0
BBX 8 13 0 0
BITMAP
3C
00
08
18
14
14
24
22
22
7E
41
41
81
ENDCHAR
STARTCHAR 00C4
ENCODING 196
SWIDTH 589 0
DWIDTH 9 0
BBX 8 13 0 0
BITMAP
34
00
08
18
14
14
24
22
22
7E
41
41
81
ENDCHAR
STARTCHAR 00C5
ENCODING 197
SWIDTH 589 0
DWIDTH 9 0
BBX 8 14 0 0
BITMAP
18
14
08
08
18
14
14
24
22
22
7E
41
41
81
ENDCHAR
STARTCHAR 00C6
ENCODING 198
SWIDTH 785 0
DWIDTH 12 0
BBX 12 11 0 0
BITMAP
03F0
0600
0A00
0A00
1200
13F0
2200
3E00
4200
4200
83F0
ENDCHAR
STARTCHAR 00C7
ENCODING 199
SWIDTH 654 0
DWIDTH 10 0
BBX 9 15 0 -4
BITMAP
1F00
2080
4000
4000
8000
8000
8000
4000
4000
2080
1F00
0400
0200
0200
0E00
ENDCHAR
STARTCHAR 00C8
ENCODING 200
SWIDTH 523 0
DWIDTH 8 0
BBX 6 14 1 0
BITMAP
40
20
00
FC
80
80
80
80
FC
80
80
80
80
FC
ENDCHAR
STARTCHAR 00C9
ENCODING 201
SWIDTH 523 0
DWIDTH 8 0
BBX 6 13 1 1
BITMAP
10
20
FC
80
80
80
80
FC
80
80
80
80
FC
ENDCHAR
STARTCHAR 00CA
ENCODING 202
SWIDTH 523 0
DWIDTH 8 0
BBX 6 14 1 0
BITMAP
20
58
00
FC
80
80
80
80
FC
80
80
80
80
FC
ENDCHAR
STARTCHAR 00CB
ENCODING 203
SWIDTH 523 0
DWIDTH 8 0
BBX 6 13 1 0
BITMAP
48
00
FC
80
80
80
80
FC
80
80
80
80
FC
ENDCHAR
STARTCHAR 00CC
ENCODING 204
SWIDTH 196 0
DWIDTH 3 0
BBX 2 13 0 1
BITMAP
C0
00
40
40
40
40
40
40
40
40
40
40
40
ENDCHAR
STARTCHAR 00CD
ENCODING 205
SWIDTH 196 0
DWIDTH 3 0
BBX 2 13 1 1
BITMAP
C0
00
80
80
80
80
80
80
80
80
80
80
80
ENDCHAR
STARTCHAR 00CE
ENCODING 206
SWIDTH 196 0
DWIDTH 3 0
BBX 3 14 0 0
BITMAP
40
A0
00
40
40
40
40
40
40
40
40
40
40
40
ENDCHAR
STARTCHAR 00CF
ENCODING 207
SWIDTH 196 0
DWIDTH 3 0
BBX 5 13 -1 0
BITMAP
D8
00
20
20
20
20
20
20
20
20
20
20
20
ENDCHAR
STARTCHAR 00D0
ENCODING 208
SWIDTH 523 0
DWIDTH 8 0
BBX 8 11 0 0
BITMAP
78
44
42
42
41
F1
41
42
42
44
78
ENDCHAR
STARTCHAR 00D1
ENCODING 209
SWIDTH 654 0
DWIDTH 10 0
BBX 8 14 1 0
BITMAP
3C
00
00
81
C1
A1
A1
91
91
89
89
85
83
83
ENDCHAR
STARTCHAR 00D2
ENCODING 210
SWIDTH 720 0
DWIDTH 11 0
BBX 10 13 0 1
BITMAP
0800
0400
1E00
2180
4080
4040
8040
8040
8040
4040
4080
2180
1E00
ENDCHAR
STARTCHAR 00D3
ENCODING 211
SWIDTH 720 0
DWIDTH 11 0
BBX 10 13 0 1
BITMAP
0600
0800
1E00
2180
4080
4040
8040
8040
8040
4040
4080
2180
1E00
ENDCHAR
STARTCHAR 00D4
ENCODING 212
SWIDTH 720 0
DWIDTH 11 0
BBX 10 13 0 1
BITMAP
0E00
0000
1E00
2180
4080
4040
8040
8040
8040
4040
4080
2180
1E00
ENDCHAR
STARTCHAR 00D5
ENCODING 213
SWIDTH 720 0
DWIDTH 11 0
BBX 10 14 0 0
BITMAP
1900
0600
0000
1E00
2180
4080
4040
8040
8040
8040
4040
4080
2180
1E00
ENDCHAR
STARTCHAR 00D6
ENCODING 214
SWIDTH 720 0
DWIDTH 11 0
BBX 10 13 0 0
BITMAP
1200
0000
1E00
2180
4080
4040
8040
8040
8040
4040
4080
2180
1E00
ENDCHAR
STARTCHAR 00D7
ENCODING 215
SWIDTH 523 0
DWIDTH 8 0
BBX 5 5 1 2
BITMAP
88
50
20
50
88
ENDCHAR
STARTCHAR 00D8
ENCODING 216
SWIDTH 720 0
DWIDTH 11 0
BBX 10 11 0 0
BITMAP
1E40
2180
4080
4140
8240
8440
8840
5040
6080
6180
9E00
ENDCHAR
STARTCHAR 00D9
ENCODING 217
SWIDTH 589 0
DWIDTH 9 0
BBX 7 13 1 1
BITMAP
30
00
82
82
82
82
82
82
82
82
82
46
38
ENDCHAR
STARTCHAR 00DA
ENCODING 218
SWIDTH 589 0
DWIDTH 9 0
BBX 7 13 1 1
BITMAP
18
00
82
82
82
82
82
82
82
82
82
46
38
ENDCHAR
STARTCHAR 00DB
ENCODING 219
SWIDTH 589 0
DWIDTH 9 0
BBX 7 14 1 0
BITMAP
10
28
00
82
82
82
82
82
82
82
82
82
46
38
ENDCHAR
STARTCHAR 00DC
ENCODING 220
SWIDTH 589 0
DWIDTH 9 0
BBX 7 13 1 0
BITMAP
6C
00
82
82
82
82
82
82
82
82
82
46
38
ENDCHAR
STARTCHAR 00DD
ENCODING 221
SWIDTH 523 0
DWIDTH 8 0
BBX 7 13 0 1
BITMAP
08
10
82
42
44
24
28
18
18
10
10
10
10
ENDCHAR
STARTCHAR 00DE
ENCODING 222
SWIDTH 523 0
DWIDTH 8 0
BBX 6 11 1 0
BITMAP
80
80
F8
88
84
84
84
88
F8
80
80
ENDCHAR
STARTCHAR 00DF
ENCODING 223
SWIDTH 458 0
DWIDTH 7 0
BBX 6 11 1 0
BITMAP
70
88
88
88
90
B0
88
84
84
88
B0
ENDCHAR
STARTCHAR 00E0
ENCODING 224
SWIDTH 523 0
DWIDTH 8 0
BBX 7 10 0 0
BITMAP
10
08
00
3A
46
82
82
82
46
3A
ENDCHAR
STARTCHAR 00E1
ENCODING 225
SWIDTH 523 0
DWIDTH 8 0
BBX 7 10 0 0
BITMAP
08
10
00
3A
46
82
82
82
46
3A
ENDCHAR
STARTCHAR 00E2
ENCODING 226
SWIDTH 523 0
DWIDTH 8 0
BBX 7 10 0 0
BITMAP
10
2C
00
3A
46
82
82
82
46
3A
ENDCHAR
STARTCHAR 00E3
ENCODING 227
SWIDTH 523 0
DWIDTH 8 0
BBX 7 10 0 0
BITMAP
20
1C
00
3A
46
82
82
82
46
3A
ENDCHAR
STARTCHAR 00E4
ENCODING 228
SWIDTH 523 0
DWIDTH 8 0
BBX 7 9 0 0
BITMAP
24
00
3A
46
82
82
82
46
3A
ENDCHAR
STARTCHAR 00E5
ENCODING 229
SWIDTH 523 0
DWIDTH 8 0
BBX 7 10 0 0
BITMAP
18
18
00
3A
46
82
82
82
46
3A
ENDCHAR
STARTCHAR 00E6
ENCODING 230
SWIDTH 720 0
DWIDTH 11 0
BBX 10 7 0 0
BITMAP
7B80
0C40
3440
4FC0
8400
8C40
7380
ENDCHAR
STARTCHAR 00E7
ENCODING 231
SWIDTH 392 0
DWIDTH 6 0
BBX 6 11 0 -4
BITMAP
38
40
80
80
80
40
3C
20
30
08
30
ENDCHAR
STARTCHAR 00E8
ENCODING 232
SWIDTH 458 0
DWIDTH 7 0
BBX 6 10 0 0
BITMAP
30
08
00
38
44
84
FC
80
44
38
ENDCHAR
STARTCHAR 00E9
ENCODING 233
SWIDTH 458 0
DWIDTH 7 0
BBX 6 10 0 0
BITMAP
18
20
00
38
44
84
FC
80
44
38
ENDCHAR
STARTCHAR 00EA
ENCODING 234
SWIDTH 458 0
DWIDTH 7 0
BBX 6 10 0 0
BITMAP
10
28
00
38
44
84
FC
80
44
38
ENDCHAR
STARTCHAR 00EB
ENCODING 235
SWIDTH 458 0
DWIDTH 7 0
BBX 6 9 0 0
BITMAP
6C
00
38
44
84
FC
80
44
38
ENDCHAR
STARTCHAR 00EC
ENCODING 236
SWIDTH 196 0
DWIDTH 3 0
BBX 3 11 0 0
BITMAP
80
C0
20
00
40
40
40
40
40
40
40
ENDCHAR
STARTCHAR 00ED
ENCODING 237
SWIDTH 196 0
DWIDTH 3 0
BBX 2 10 0 1
BITMAP
40
80
00
40
40
40
40
40
40
40
ENDCHAR
STARTCHAR 00EE
ENCODING 238
SWIDTH 196 0
DWIDTH 3 0
BBX 4 10 -1 0
BITMAP
20
D0
00
20
20
20
20
20
20
20
ENDCHAR
STARTCHAR 00EF
ENCODING 239
SWIDTH 196 0
DWIDTH 3 0
BBX 4 9 -1 0
BITMAP
D0
00
20
20
20
20
20
20
20
ENDCHAR
STARTCHAR 00F0
ENCODING 240
SWIDTH 523 0
DWIDTH 8 0
BBX 6 11 1 0
BITMAP
10
60
58
08
7C
84
84
84
84
84
78
ENDCHAR
STARTCHAR 00F1
ENCODING 241
SWIDTH 523 0
DWIDTH 8 0
BBX 5 10 1 0
BITMAP
48
30
00
B8
C8
88
88
88
88
88
ENDCHAR
STARTCHAR 00F2
ENCODING 242
SWIDTH 523 0
DWIDTH 8 0
BBX 7 10 0 0
BITMAP
10
08
00
38
44
82
82
82
44
38
ENDCHAR
STARTCHAR 00F3
ENCODING 243
SWIDTH 523 0
DWIDTH 8 0
BBX 7 10 0 0
BITMAP
18
20
00
38
44
82
82
82
44
38
ENDCHAR
STARTCHAR 00F4
ENCODING 244
SWIDTH 523 0
DWIDTH 8 0
BBX 7 10 0 0
BITMAP
10
28
00
38
44
82
82
82
44
38
ENDCHAR
STARTCHAR 00F5
ENCODING 245
SWIDTH 523 0
DWIDTH 8 0
BBX 7 10 0 0
BITMAP
24
18
00
38
44
82
82
82
44
38
ENDCHAR
STARTCHAR 00F6
ENCODING 246
SWIDTH 523 0
DWIDTH 8 0
BBX 7 9 0 0
BITMAP
24
00
38
44
82
82
82
44
38
ENDCHAR
STARTCHAR 00F7
ENCODING 247
SWIDTH 523 0
DWIDTH 8 0
BBX 6 6 1 2
BITMAP
20
00
FC
00
00
20
ENDCHAR
STARTCHAR 00F8
ENCODING 248
SWIDTH 523 0
DWIDTH 8 0
BBX 7 7 0 0
BITMAP
3A
44
8A
92
A2
44
B8
ENDCHAR
STARTCHAR 00F9
ENCODING 249
SWIDTH 523 0
DWIDTH 8 0
BBX 5 10 1 1
BITMAP
20
10
00
88
88
88
88
88
88
70
ENDCHAR
STARTCHAR 00FA
ENCODING 250
SWIDTH 523 0
DWIDTH 8 0
BBX 5 11 1 0
BITMAP
10
30
00
00
88
88
88
88
88
88
70
ENDCHAR
STARTCHAR 00FB
ENCODING 251
SWIDTH 523 0
DWIDTH 8 0
BBX 5 10 1 0
BITMAP
20
58
00
88
88
88
88
88
88
70
ENDCHAR
STARTCHAR 00FC
ENCODING 252
SWIDTH 523 0
DWIDTH 8 0
BBX 5 9 1 0
BITMAP
48
00
88
88
88
88
88
88
70
ENDCHAR
STARTCHAR 00FD
ENCODING 253
SWIDTH 458 0
DWIDTH 7 0
BBX 6 14 0 -3
BITMAP
10
20
00
84
44
48
48
28
30
30
10
20
20
40
ENDCHAR
STARTCHAR 00FE
ENCODING 254
SWIDTH 523 0
DWIDTH 8 0
BBX 6 15 1 -4
BITMAP
80
80
80
80
B8
C4
84
84
84
84
F8
80
80
80
80
ENDCHAR
STARTCHAR 00FF
ENCODING 255
SWIDTH 458 0
DWIDTH 7 0
BBX 6 13 0 -4
BITMAP
48
00
84
44
48
48
28
30
30
10
20
20
40
ENDCHAR
STARTCHAR 0100
ENCODING 256
SWIDTH 589 0
DWIDTH 9 0
BBX 8 13 0 0
BITMAP
3C
00
08
18
14
14
24
22
22
7E
41
41
81
ENDCHAR
STARTCHAR 0101
ENCODING 257
SWIDTH 523 0
DWIDTH 8 0
BBX 7 10 0 0
BITMAP
3C
00
00
3A
46
82
82
82
46
3A
ENDCHAR
STARTCHAR 0102
ENCODING 258
SWIDTH 589 0
DWIDTH 9 0
BBX 8 14 0 0
BITMAP
04
1C
00
08
18
14
14
24
22
22
7E
41
41
81
ENDCHAR
STARTCHAR 0103
ENCODING 259
SWIDTH 523 0
DWIDTH 8 0
BBX 7 10 0 0
BITMAP
24
18
00
3A
46
82
82
82
46
3A
ENDCHAR
STARTCHAR 0104
ENCODING 260
SWIDTH 589 0
DWIDTH 9 0
BBX 9 15 0 -4
BITMAP
0800
1800
1400
1400
2400
2200
2200
7E00
4100
4100
8100
0100
0200
0200
0380
ENDCHAR
STARTCHAR 0105
ENCODING 261
SWIDTH 523 0
DWIDTH 8 0
BBX 8 11 0 -4
BITMAP
3A
46
82
82
82
46
3A
04
04
04
07
ENDCHAR
STARTCHAR 0106
ENCODING 262
SWIDTH 654 0
DWIDTH 10 0
BBX 9 13 0 1
BITMAP
0200
0400
1F00
2080
4000
4000
8000
8000
8000
4000
4000
2080
1F00
ENDCHAR
STARTCHAR 0107
ENCODING 263
SWIDTH 392 0
DWIDTH 6 0
BBX 6 10 0 0
BITMAP
08
10
00
38
40
80
80
80
40
3C
ENDCHAR
STARTCHAR 0108
ENCODING 264
SWIDTH 654 0
DWIDTH 10 0
BBX 9 14 0 0
BITMAP
0400
0A00
0000
1F00
2080
4000
4000
8000
8000
8000
4000
4000
2080
1F00
ENDCHAR
STARTCHAR 0109
ENCODING 265
SWIDTH 392 0
DWIDTH 6 0
BBX 6 9 0 1
BITMAP
78
00
38
40
80
80
80
40
3C
ENDCHAR
STARTCHAR 010A
ENCODING 266
SWIDTH 654 0
DWIDTH 10 0
BBX 9 13 0 0
BITMAP
0400
0000
1F00
2080
4000
4000
8000
8000
8000
4000
4000
2080
1F00
ENDCHAR
STARTCHAR 010B
ENCODING 267
SWIDTH 392 0
DWIDTH 6 0
BBX 6 10 0 0
BITMAP
10
00
00
38
40
80
80
80
40
3C
ENDCHAR
STARTCHAR 010C
ENCODING 268
SWIDTH 654 0
DWIDTH 10 0
BBX 9 13 0 0
BITMAP
0A00
0400
1F00
2080
4000
4000
8000
8000
8000
4000
4000
2080
1F00
ENDCHAR
STARTCHAR 010D
ENCODING 269
SWIDTH 392 0
DWIDTH 6 0
BBX 6 10 0 0
BITMAP
68
10
00
38
40
80
80
80
40
3C
ENDCHAR
STARTCHAR 010E
ENCODING 270
SWIDTH 523 0
DWIDTH 8 0
BBX 7 13 1 0
BITMAP
30
00
F0
88
84
84
82
82
82
84
84
88
F0
ENDCHAR
STARTCHAR 010F
ENCODING 271
SWIDTH 523 0
DWIDTH 8 0
BBX 8 11 1 0
BITMAP
05
04
04
04
74
8C
84
84
84
84
7C
ENDCHAR
STARTCHAR 0110
ENCODING 272
SWIDTH 523 0
DWIDTH 8 0
BBX 8 11 0 0
BITMAP
78
44
42
42
41
F1
41
42
42
44
78
ENDCHAR
STARTCHAR 0111
ENCODING 273
SWIDTH 523 0
DWIDTH 8 0
BBX 7 11 1 0
BITMAP
04
04
1E
04
74
8C
84
84
84
84
7C
ENDCHAR
STARTCHAR 0112
ENCODING 274
SWIDTH 523 0
DWIDTH 8 0
BBX 6 13 1 0
BITMAP
78
00
FC
80
80
80
80
FC
80
80
80
80
FC
ENDCHAR
STARTCHAR 0113
ENCODING 275
SWIDTH 458 0
DWIDTH 7 0
BBX 6 10 0 0
BITMAP
7C
00
00
38
44
84
FC
80
44
38
ENDCHAR
STARTCHAR 0114
ENCODING 276
SWIDTH 523 0
DWIDTH 8 0
BBX 6 14 1 0
BITMAP
48
70
00
FC
80
80
80
80
FC
80
80
80
80
FC
ENDCHAR
STARTCHAR 0115
ENCODING 277
SWIDTH 458 0
DWIDTH 7 0
BBX 6 10 0 0
BITMAP
40
38
00
38
44
84
FC
80
44
38
ENDCHAR
STARTCHAR 0116
ENCODING 278
SWIDTH 523 0
DWIDTH 8 0
BBX 6 13 1 0
BITMAP
20
00
FC
80
80
80
80
FC
80
80
80
80
FC
ENDCHAR
STARTCHAR 0117
ENCODING 279
SWIDTH 458 0
DWIDTH 7 0
BBX 6 10 0 0
BITMAP
10
00
00
38
44
84
FC
80
44
38
ENDCHAR
STARTCHAR 0118
ENCODING 280
SWIDTH 523 0
DWIDTH 8 0
BBX 6 14 1 -3
BITMAP
FC
80
80
80
80
FC
80
80
80
80
FC
10
20
18
ENDCHAR
STARTCHAR 0119
ENCODING 281
SWIDTH 458 0
DWIDTH 7 0
BBX 6 11 0 -4
BITMAP
38
44
84
FC
80
44
38
10
10
20
1C
ENDCHAR
STARTCHAR 011A
ENCODING 282
SWIDTH 523 0
DWIDTH 8 0
BBX 6 13 1 0
BITMAP
70
00
FC
80
80
80
80
FC
80
80
80
80
FC
ENDCHAR
STARTCHAR 011B
ENCODING 283
SWIDTH 458 0
DWIDTH 7 0
BBX 6 10 0 0
BITMAP
6C
10
00
38
44
84
FC
80
44
38
ENDCHAR
STARTCHAR 011C
ENCODING 284
SWIDTH 720 0
DWIDTH 11 0
BBX 10 13 0 1
BITMAP
0E00
0000
1E00
2180
4080
4000
8000
87C0
8040
4040
4080
2180
1E00
ENDCHAR
STARTCHAR 011D
ENCODING 285
SWIDTH 523 0
DWIDTH 8 0
BBX 7 13 0 -3
BITMAP
3C
00
3A
46
82
82
82
46
3A
02
02
44
38
ENDCHAR
STARTCHAR 011E
ENCODING 286
SWIDTH 720 0
DWIDTH 11 0
BBX 10 13 0 0
BITMAP
1200
0C00
1E00
2180
4080
4000
8000
87C0
8040
4040
4080
2180
1E00
ENDCHAR
STARTCHAR 011F
ENCODING 287
SWIDTH 523 0
DWIDTH 8 0
BBX 7 14 0 -4
BITMAP
24
18
00
3A
46
82
82
82
46
3A
02
02
44
38
ENDCHAR
STARTCHAR 0120
ENCODING 288
SWIDTH 720 0
DWIDTH 11 0
BBX 10 13 0 0
BITMAP
0400
0000
1E00
2180
4080
4000
8000
87C0
8040
4040
4080
2180
1E00
ENDCHAR
STARTCHAR 0121
ENCODING 289
SWIDTH 523 0
DWIDTH 8 0
BBX 7 14 0 -4
BITMAP
10
00
00
3A
46
82
82
82
46
3A
02
02
44
38
ENDCHAR
STARTCHAR 0122
ENCODING 290
SWIDTH 720 0
DWIDTH 11 0
BBX 10 15 0 -4
BITMAP
1E00
2180
4080
4000
8000
87C0
8040
4040
4080
2180
1E00
0000
0400
0400
0400
ENDCHAR
STARTCHAR 0123
ENCODING 291
SWIDTH 523 0
DWIDTH 8 0
BBX 7 14 0 -4
BITMAP
10
10
00
3A
46
82
82
82
46
3A
02
02
44
38
ENDCHAR
STARTCHAR 0124
ENCODING 292
SWIDTH 589 0
DWIDTH 9 0
BBX 7 14 1 0
BITMAP
10
28
00
82
82
82
82
82
FE
82
82
82
82
82
ENDCHAR
STARTCHAR 0125
ENCODING 293
SWIDTH 523 0
DWIDTH 8 0
BBX 5 14 1 0
BITMAP
70
00
00
80
80
80
80
B8
C8
88
88
88
88
88
ENDCHAR
STARTCHAR 0126
ENCODING 294
SWIDTH 589 0
DWIDTH 9 0
BBX 9 11 0 0
BITMAP
4100
4100
FF80
4100
4100
7F00
4100
4100
4100
4100
4100
ENDCHAR
STARTCHAR 0127
ENCODING 295
SWIDTH 523 0
DWIDTH 8 0
BBX 6 11 0 0
BITMAP
40
40
F0
40
5C
64
44
44
44
44
44
ENDCHAR
STARTCHAR 0128
ENCODING 296
SWIDTH 196 0
DWIDTH 3 0
BBX 4 13 -1 0
BITMAP
F0
00
20
20
20
20
20
20
20
20
20
20
20
ENDCHAR
STARTCHAR 0129
ENCODING 297
SWIDTH 196 0
DWIDTH 3 0
BBX 4 10 -1 0
BITMAP
F0
00
00
20
20
20
20
20
20
20
ENDCHAR
STARTCHAR 012A
ENCODING 298
SWIDTH 196 0
DWIDTH 3 0
BBX 5 13 -1 0
BITMAP
F8
00
20
20
20
20
20
20
20
20
20
20
20
ENDCHAR
STARTCHAR 012B
ENCODING 299
SWIDTH 196 0
DWIDTH 3 0
BBX 4 10 -1 0
BITMAP
F0
00
00
20
20
20
20
20
20
20
ENDCHAR
STARTCHAR 012C
ENCODING 300
SWIDTH 196 0
DWIDTH 3 0
BBX 3 13 0 1
BITMAP
E0
00
40
40
40
40
40
40
40
40
40
40
40
ENDCHAR
STARTCHAR 012D
ENCODING 301
SWIDTH 196 0
DWIDTH 3 0
BBX 4 10 -1 0
BITMAP
90
70
00
20
20
20
20
20
20
20
ENDCHAR
STARTCHAR 012E
ENCODING 302
SWIDTH 196 0
DWIDTH 3 0
BBX 3 15 0 -4
BITMAP
40
40
40
40
40
40
40
40
40
40
40
80
80
80
E0
ENDCHAR
STARTCHAR 012F
ENCODING 303
SWIDTH 196 0
DWIDTH 3 0
BBX 3 15 0 -4
BITMAP
40
00
00
00
40
40
40
40
40
40
40
80
80
80
E0
ENDCHAR
STARTCHAR 0130
ENCODING 304
SWIDTH 196 0
DWIDTH 3 0
BBX 1 13 1 0
BITMAP
80
00
80
80
80
80
80
80
80
80
80
80
80
ENDCHAR
STARTCHAR 0131
ENCODING 305
SWIDTH 196 0
DWIDTH 3 0
BBX 1 7 1 0
BITMAP
80
80
80
80
80
80
80
ENDCHAR
STARTCHAR 0134
ENCODING 308
SWIDTH 392 0
DWIDTH 6 0
BBX 6 14 0 0
BITMAP
08
14
00
08
08
08
08
08
08
08
08
08
88
F0
ENDCHAR
STARTCHAR 0135
ENCODING 309
SWIDTH 196 0
DWIDTH 3 0
BBX 5 14 -1 -4
BITMAP
20
58
00
20
20
20
20
20
20
20
20
20
20
E0
ENDCHAR
STARTCHAR 0136
ENCODING 310
SWIDTH 458 0
DWIDTH 7 0
BBX 6 15 1 -4
BITMAP
88
88
90
A0
C0
C0
C0
A0
90
88
84
00
20
20
20
ENDCHAR
STARTCHAR 0137
ENCODING 311
SWIDTH 392 0
DWIDTH 6 0
BBX 4 15 1 -4
BITMAP
80
80
80
80
90
A0
C0
80
C0
A0
90
00
60
20
40
ENDCHAR
STARTCHAR 0138
ENCODING 312
SWIDTH 392 0
DWIDTH 6 0
BBX 4 7 1 0
BITMAP
90
A0
C0
C0
A0
A0
90
ENDCHAR
STARTCHAR 0139
ENCODING 313
SWIDTH 458 0
DWIDTH 7 0
BBX 5 14 1 0
BITMAP
10
20
00
80
80
80
80
80
80
80
80
80
80
F8
ENDCHAR
STARTCHAR 013A
ENCODING 314
SWIDTH 196 0
DWIDTH 3 0
BBX 2 14 1 1
BITMAP
C0
00
00
80
80
80
80
80
80
80
80
80
80
80
ENDCHAR
STARTCHAR 013B
ENCODING 315
SWIDTH 458 0
DWIDTH 7 0
BBX 5 15 1 -4
BITMAP
80
80
80
80
80
80
80
80
80
80
F8
00
20
20
20
ENDCHAR
STARTCHAR 013C
ENCODING 316
SWIDTH 196 0
DWIDTH 3 0
BBX 1 15 1 -4
BITMAP
80
80
80
80
80
80
80
80
80
80
80
00
80
80
80
ENDCHAR
STARTCHAR 013D
ENCODING 317
SWIDTH 458 0
DWIDTH 7 0
BBX 6 11 1 0
BITMAP
84
84
80
80
80
80
80
80
80
80
F8
ENDCHAR
STARTCHAR 013E
ENCODING 318
SWIDTH 196 0
DWIDTH 3 0
BBX 4 11 1 0
BITMAP
90
90
80
80
80
80
80
80
80
80
80
ENDCHAR
STARTCHAR 013F
ENCODING 319
SWIDTH 458 0
DWIDTH 7 0
BBX 5 11 1 0
BITMAP
80
80
80
80
80
B0
90
80
80
80
F8
ENDCHAR
STARTCHAR 0140
ENCODING 320
SWIDTH 261 0
DWIDTH 4 0
BBX 3 11 1 0
BITMAP
80
80
80
80
A0
E0
80
80
80
80
80
ENDCHAR
STARTCHAR 0141
ENCODING 321
SWIDTH 458 0
DWIDTH 7 0
BBX 6 11 0 0
BITMAP
40
40
40
40
20
40
C0
40
40
40
3C
ENDCHAR
STARTCHAR 0142
ENCODING 322
SWIDTH 261 0
DWIDTH 4 0
BBX 3 11 0 0
BITMAP
40
40
40
40
60
40
C0
40
40
40
40
ENDCHAR
STARTCHAR 0143
ENCODING 323
SWIDTH 654 0
DWIDTH 10 0
BBX 8 14 1 0
BITMAP
04
08
10
81
C1
A1
A1
91
91
89
89
85
83
83
ENDCHAR
STARTCHAR 0144
ENCODING 324
SWIDTH 523 0
DWIDTH 8 0
BBX 5 10 1 0
BITMAP
18
20
00
B8
C8
88
88
88
88
88
ENDCHAR
STARTCHAR 0145
ENCODING 325
SWIDTH 654 0
DWIDTH 10 0
BBX 8 15 1 -4
BITMAP
81
C1
A1
A1
91
91
89
89
85
83
83
00
18
08
10
ENDCHAR
STARTCHAR 0146
ENCODING 326
SWIDTH 523 0
DWIDTH 8 0
BBX 5 11 1 -4
BITMAP
B8
C8
88
88
88
88
88
00
20
20
20
ENDCHAR
STARTCHAR 0147
ENCODING 327
SWIDTH 654 0
DWIDTH 10 0
BBX 8 13 1 0
BITMAP
1C
00
81
C1
A1
A1
91
91
89
89
85
83
83
ENDCHAR
STARTCHAR 0148
ENCODING 328
SWIDTH 523 0
DWIDTH 8 0
BBX 5 10 1 0
BITMAP
D8
20
00
B8
C8
88
88
88
88
88
ENDCHAR
STARTCHAR 014A
ENCODING 330
SWIDTH 654 0
DWIDTH 10 0
BBX 8 15 1 -4
BITMAP
81
C1
A1
A1
91
91
89
89
85
83
83
01
01
01
06
ENDCHAR
STARTCHAR 014B
ENCODING 331
SWIDTH 523 0
DWIDTH 8 0
BBX 5 11 1 -4
BITMAP
B8
C8
88
88
88
88
88
08
08
08
18
ENDCHAR
STARTCHAR 014C
ENCODING 332
SWIDTH 720 0
DWIDTH 11 0
BBX 10 14 0 0
BITMAP
1F00
0000
0000
1E00
2180
4080
4040
8040
8040
8040
4040
4080
2180
1E00
ENDCHAR
STARTCHAR 014D
ENCODING 333
SWIDTH 523 0
DWIDTH 8 0
BBX 7 10 0 0
BITMAP
7C
00
00
38
44
82
82
82
44
38
ENDCHAR
STARTCHAR 014E
ENCODING 334
SWIDTH 720 0
DWIDTH 11 0
BBX 10 13 0 0
BITMAP
1200
0C00
1E00
2180
4080
4040
8040
8040
8040
4040
4080
2180
1E00
ENDCHAR
STARTCHAR 014F
ENCODING 335
SWIDTH 523 0
DWIDTH 8 0
BBX 7 10 0 0
BITMAP
24
38
00
38
44
82
82
82
44
38
ENDCHAR
STARTCHAR 0150
ENCODING 336
SWIDTH 720 0
DWIDTH 11 0
BBX 10 15 0 0
BITMAP
0100
0B00
1400
0000
1E00
2180
4080
4040
8040
8040
8040
4040
4080
2180
1E00
ENDCHAR
STARTCHAR 0151
ENCODING 337
SWIDTH 523 0
DWIDTH 8 0
BBX 7 11 0 0
BITMAP
14
24
48
00
38
44
82
82
82
44
38
ENDCHAR
STARTCHAR 0152
ENCODING 338
SWIDTH 785 0
DWIDTH 12 0
BBX 11 11 0 0
BITMAP
1FE0
2200
4200
4200
8200
83E0
8200
4200
4200
2200
1FE0
ENDCHAR
STARTCHAR 0153
ENCODING 339
SWIDTH 850 0
DWIDTH 13 0
BBX 12 7 0 0
BITMAP
39E0
4610
8210
83F0
8200
4610
39E0
ENDCHAR
STARTCHAR 0154
ENCODING 340
SWIDTH 523 0
DWIDTH 8 0
BBX 6 13 1 1
BITMAP
10
20
F8
84
84
84
84
F8
90
88
88
84
84
ENDCHAR
STARTCHAR 0155
ENCODING 341
SWIDTH 327 0
DWIDTH 5 0
BBX 4 10 1 0
BITMAP
20
40
00
F0
80
80
80
80
80
80
ENDCHAR
STARTCHAR 0156
ENCODING 342
SWIDTH 523 0
DWIDTH 8 0
BBX 6 15 1 -4
BITMAP
F8
84
84
84
84
F8
90
88
88
84
84
00
20
20
20
ENDCHAR
STARTCHAR 0157
ENCODING 343
SWIDTH 327 0
DWIDTH 5 0
BBX 4 11 1 -4
BITMAP
F0
80
80
80
80
80
80
00
40
40
40
ENDCHAR
STARTCHAR 0158
ENCODING 344
SWIDTH 523 0
DWIDTH 8 0
BBX 6 13 1 0
BITMAP
50
20
F8
84
84
84
84
F8
90
88
88
84
84
ENDCHAR
STARTCHAR 0159
ENCODING 345
SWIDTH 327 0
DWIDTH 5 0
BBX 5 10 0 0
BITMAP
D8
20
00
78
40
40
40
40
40
40
ENDCHAR
STARTCHAR 015A
ENCODING 346
SWIDTH 523 0
DWIDTH 8 0
BBX 6 13 1 1
BITMAP
10
20
78
80
80
80
60
10
08
04
04
04
F8
ENDCHAR
STARTCHAR 015B
ENCODING 347
SWIDTH 392 0
DWIDTH 6 0
BBX 4 10 1 0
BITMAP
20
40
00
F0
80
80
60
10
10
E0
ENDCHAR
STARTCHAR 015C
ENCODING 348
SWIDTH 523 0
DWIDTH 8 0
BBX 6 13 1 1
BITMAP
70
00
78
80
80
80
60
10
08
04
04
04
F8
ENDCHAR
STARTCHAR 015D
ENCODING 349
SWIDTH 392 0
DWIDTH 6 0
BBX 4 10 1 0
BITMAP
40
B0
00
F0
80
80
60
10
10
E0
ENDCHAR
STARTCHAR 015E
ENCODING 350
SWIDTH 523 0
DWIDTH 8 0
BBX 6 15 1 -4
BITMAP
78
80
80
80
60
10
08
04
04
04
F8
20
10
10
70
ENDCHAR
STARTCHAR 015F
ENCODING 351
SWIDTH 392 0
DWIDTH 6 0
BBX 4 11 1 -4
BITMAP
F0
80
80
60
10
10
E0
40
60
10
E0
ENDCHAR
STARTCHAR 0160
ENCODING 352
SWIDTH 523 0
DWIDTH 8 0
BBX 6 13 1 0
BITMAP
50
20
78
80
80
80
60
10
08
04
04
04
F8
ENDCHAR
STARTCHAR 0161
ENCODING 353
SWIDTH 392 0
DWIDTH 6 0
BBX 4 10 1 0
BITMAP
90
60
00
F0
80
80
60
10
10
E0
ENDCHAR
STARTCHAR 0162
ENCODING 354
SWIDTH 458 0
DWIDTH 7 0
BBX 7 15 0 -4
BITMAP
FE
10
10
10
10
10
10
10
10
10
10
10
20
18
38
ENDCHAR
STARTCHAR 0163
ENCODING 355
SWIDTH 327 0
DWIDTH 5 0
BBX 5 13 0 -3
BITMAP
40
40
F0
40
40
40
40
20
30
20
38
08
30
ENDCHAR
STARTCHAR 0164
ENCODING 356
SWIDTH 458 0
DWIDTH 7 0
BBX 7 13 0 0
BITMAP
28
10
FE
10
10
10
10
10
10
10
10
10
10
ENDCHAR
STARTCHAR 0165
ENCODING 357
SWIDTH 327 0
DWIDTH 5 0
BBX 6 10 0 0
BITMAP
04
44
40
F0
40
40
40
40
20
30
ENDCHAR
STARTCHAR 0166
ENCODING 358
SWIDTH 458 0
DWIDTH 7 0
BBX 7 11 0 0
BITMAP
FE
10
10
10
FE
10
10
10
10
10
10
ENDCHAR
STARTCHAR 0167
ENCODING 359
SWIDTH 327 0
DWIDTH 5 0
BBX 4 9 0 1
BITMAP
40
40
F0
40
F0
40
40
20
30
ENDCHAR
STARTCHAR 0168
ENCODING 360
SWIDTH 589 0
DWIDTH 9 0
BBX 7 13 1 0
BITMAP
3C
00
82
82
82
82
82
82
82
82
82
46
38
ENDCHAR
STARTCHAR 0169
ENCODING 361
SWIDTH 523 0
DWIDTH 8 0
BBX 5 10 1 0
BITMAP
78
00
00
88
88
88
88
88
88
70
ENDCHAR
STARTCHAR 016A
ENCODING 362
SWIDTH 589 0
DWIDTH 9 0
BBX 7 13 1 0
BITMAP
7C
00
82
82
82
82
82
82
82
82
82
46
38
ENDCHAR
STARTCHAR 016B
ENCODING 363
SWIDTH 523 0
DWIDTH 8 0
BBX 5 10 1 0
BITMAP
F8
00
00
88
88
88
88
88
88
70
ENDCHAR
STARTCHAR 016C
ENCODING 364
SWIDTH 589 0
DWIDTH 9 0
BBX 7 13 1 1
BITMAP
38
00
82
82
82
82
82
82
82
82
82
46
38
ENDCHAR
STARTCHAR 016D
ENCODING 365
SWIDTH 523 0
DWIDTH 8 0
BBX 5 10 1 0
BITMAP
48
70
00
88
88
88
88
88
88
70
ENDCHAR
STARTCHAR 016E
ENCODING 366
SWIDTH 589 0
DWIDTH 9 0
BBX 7 14 1 0
BITMAP
38
28
10
82
82
82
82
82
82
82
82
82
46
38
ENDCHAR
STARTCHAR 016F
ENCODING 367
SWIDTH 523 0
DWIDTH 8 0
BBX 5 11 1 0
BITMAP
20
50
70
00
88
88
88
88
88
88
70
ENDCHAR
STARTCHAR 0170
ENCODING 368
SWIDTH 589 0
DWIDTH 9 0
BBX 7 14 1 0
BITMAP
04
28
40
82
82
82
82
82
82
82
82
82
46
38
ENDCHAR
STARTCHAR 0171
ENCODING 369
SWIDTH 523 0
DWIDTH 8 0
BBX 5 11 1 0
BITMAP
28
48
10
00
88
88
88
88
88
88
70
ENDCHAR
STARTCHAR 0172
ENCODING 370
SWIDTH 589 0
DWIDTH 9 0
BBX 7 15 1 -4
BITMAP
82
82
82
82
82
82
82
82
82
46
38
10
20
20
18
ENDCHAR
STARTCHAR 0173
ENCODING 371
SWIDTH 523 0
DWIDTH 8 0
BBX 5 11 1 -4
BITMAP
88
88
88
88
88
88
70
20
40
40
30
ENDCHAR
STARTCHAR 0174
ENCODING 372
SWIDTH 785 0
DWIDTH 12 0
BBX 11 14 0 0
BITMAP
0400
0B00
0000
8420
8620
4A20
4A40
4A40
4A40
5140
3140
3140
3180
3080
ENDCHAR
STARTCHAR 0175
ENCODING 373
SWIDTH 654 0
DWIDTH 10 0
BBX 9 10 0 0
BITMAP
0800
1600
0000
8880
4880
5500
5500
5500
6300
2200
ENDCHAR
STARTCHAR 0176
ENCODING 374
SWIDTH 523 0
DWIDTH 8 0
BBX 7 14 0 0
BITMAP
10
2C
00
82
42
44
24
28
18
18
10
10
10
10
ENDCHAR
STARTCHAR 0177
ENCODING 375
SWIDTH 458 0
DWIDTH 7 0
BBX 6 14 0 -4
BITMAP
10
68
00
84
44
48
48
28
30
30
10
20
20
40
ENDCHAR
STARTCHAR 0178
ENCODING 376
SWIDTH 523 0
DWIDTH 8 0
BBX 7 13 0 0
BITMAP
24
00
82
42
44
24
28
18
18
10
10
10
10
ENDCHAR
STARTCHAR 0179
ENCODING 377
SWIDTH 589 0
DWIDTH 9 0
BBX 7 14 1 0
BITMAP
08
10
00
FE
04
08
08
10
10
20
60
40
80
FE
ENDCHAR
STARTCHAR 017A
ENCODING 378
SWIDTH 392 0
DWIDTH 6 0
BBX 5 10 1 1
BITMAP
20
40
00
F0
10
20
40
40
80
F8
ENDCHAR
STARTCHAR 017B
ENCODING 379
SWIDTH 589 0
DWIDTH 9 0
BBX 7 13 1 0
BITMAP
10
00
FE
04
08
08
10
10
20
60
40
80
FE
ENDCHAR
STARTCHAR 017C
ENCODING 380
SWIDTH 392 0
DWIDTH 6 0
BBX 5 10 1 0
BITMAP
60
00
00
F0
10
20
40
40
80
F8
ENDCHAR
STARTCHAR 017D
ENCODING 381
SWIDTH 589 0
DWIDTH 9 0
BBX 7 13 1 0
BITMAP
38
00
FE
04
08
08
10
10
20
60
40
80
FE
ENDCHAR
STARTCHAR 017E
ENCODING 382
SWIDTH 392 0
DWIDTH 6 0
BBX 5 10 1 0
BITMAP
D0
20
00
F0
10
20
40
40
80
F8
ENDCHAR
STARTCHAR 018F
ENCODING 399
SWIDTH 654 0
DWIDTH 10 0
BBX 9 11 0 0
BITMAP
1E00
6100
4080
0080
0080
FF80
8080
8080
4080
2100
1E00
ENDCHAR
STARTCHAR 0192
ENCODING 402
SWIDTH 327 0
DWIDTH 5 0
BBX 8 15 -2 -4
BITMAP
07
08
08
08
3C
10
10
10
10
10
10
10
10
20
E0
ENDCHAR
STARTCHAR 01A0
ENCODING 416
SWIDTH 720 0
DWIDTH 11 0
BBX 11 12 0 0
BITMAP
0020
1E20
21C0
4080
4040
8040
8040
8040
4040
4080
2180
1E00
ENDCHAR
STARTCHAR 01A1
ENCODING 417
SWIDTH 523 0
DWIDTH 8 0
BBX 8 8 0 0
BITMAP
01
39
46
82
82
82
44
38
ENDCHAR
STARTCHAR 01AF
ENCODING 431
SWIDTH 720 0
DWIDTH 11 0
BBX 10 13 1 0
BITMAP
0040
0040
8380
8200
8200
8200
8200
8200
8200
8200
8200
4600
3800
ENDCHAR
STARTCHAR 01B0
ENCODING 432
SWIDTH 589 0
DWIDTH 9 0
BBX 8 9 1 0
BITMAP
01
01
86
88
88
88
88
88
70
ENDCHAR
STARTCHAR 01C4
ENCODING 452
SWIDTH 1112 0
DWIDTH 17 0
BBX 15 14 1 0
BITMAP
002C
0010
0000
F07E
8802
8404
8408
8208
8210
8210
8420
8440
8840
F0FE
ENDCHAR
STARTCHAR 01C5
ENCODING 453
SWIDTH 981 0
DWIDTH 15 0
BBX 13 11 1 0
BITMAP
F000
8C50
8420
8400
82F8
8210
8210
8420
8440
8840
F0F8
ENDCHAR
STARTCHAR 01C6
ENCODING 454
SWIDTH 916 0
DWIDTH 14 0
BBX 12 11 1 0
BITMAP
0400
0490
0460
0400
75F0
8C10
8420
8440
8440
8480
7DF0
ENDCHAR
STARTCHAR 01C7
ENCODING 455
SWIDTH 850 0
DWIDTH 13 0
BBX 11 11 1 0
BITMAP
8020
8020
8020
8020
8020
8020
8020
8020
8020
8040
FBC0
ENDCHAR
STARTCHAR 01C8
ENCODING 456
SWIDTH 654 0
DWIDTH 10 0
BBX 8 15 1 -4
BITMAP
81
80
80
80
81
81
81
81
81
81
F9
01
01
01
06
ENDCHAR
STARTCHAR 01C9
ENCODING 457
SWIDTH 392 0
DWIDTH 6 0
BBX 4 15 1 -4
BITMAP
90
80
80
80
90
90
90
90
90
90
90
10
10
10
70
ENDCHAR
STARTCHAR 01CA
ENCODING 458
SWIDTH 1047 0
DWIDTH 16 0
BBX 14 11 1 0
BITMAP
8104
C104
A104
A104
9104
9104
8904
8904
8504
8344
8378
ENDCHAR
STARTCHAR 01CB
ENCODING 459
SWIDTH 850 0
DWIDTH 13 0
BBX 11 15 1 -4
BITMAP
8120
C100
A100
A100
9120
9120
8920
8920
8520
8320
8320
0020
0020
0020
00E0
ENDCHAR
STARTCHAR 01CC
ENCODING 460
SWIDTH 720 0
DWIDTH 11 0
BBX 9 15 1 -4
BITMAP
0080
0000
0000
0000
B880
C880
8880
8880
8880
8880
8880
0080
0080
0080
0300
ENDCHAR
STARTCHAR 01CE
ENCODING 462
SWIDTH 523 0
DWIDTH 8 0
BBX 7 10 0 0
BITMAP
24
18
00
3A
46
82
82
82
46
3A
ENDCHAR
STARTCHAR 01D0
ENCODING 464
SWIDTH 196 0
DWIDTH 3 0
BBX 4 10 -1 0
BITMAP
D0
20
00
20
20
20
20
20
20
20
ENDCHAR
STARTCHAR 01D2
ENCODING 466
SWIDTH 523 0
DWIDTH 8 0
BBX 7 10 0 0
BITMAP
24
18
00
38
44
82
82
82
44
38
ENDCHAR
STARTCHAR 01D4
ENCODING 468
SWIDTH 523 0
DWIDTH 8 0
BBX 5 10 1 0
BITMAP
58
20
00
88
88
88
88
88
88
70
ENDCHAR
STARTCHAR 01D6
ENCODING 470
SWIDTH 523 0
DWIDTH 8 0
BBX 5 12 1 0
BITMAP
78
00
00
48
00
88
88
88
88
88
88
70
ENDCHAR
STARTCHAR 01D8
ENCODING 472
SWIDTH 523 0
DWIDTH 8 0
BBX 5 13 1 0
BITMAP
10
20
00
00
48
00
88
88
88
88
88
88
70
ENDCHAR
STARTCHAR 01DA
ENCODING 474
SWIDTH 523 0
DWIDTH 8 0
BBX 5 12 1 0
BITMAP
58
20
00
48
00
88
88
88
88
88
88
70
ENDCHAR
STARTCHAR 01DC
ENCODING 476
SWIDTH 523 0
DWIDTH 8 0
BBX 5 12 1 1
BITMAP
30
00
00
48
00
88
88
88
88
88
88
70
ENDCHAR
STARTCHAR 01E6
ENCODING 486
SWIDTH 720 0
DWIDTH 11 0
BBX 10 13 0 0
BITMAP
0A00
0400
1E00
2180
4080
4000
8000
87C0
8040
4040
4080
2180
1E00
ENDCHAR
STARTCHAR 01E7
ENCODING 487
SWIDTH 523 0
DWIDTH 8 0
BBX 7 14 0 -4
BITMAP
24
18
00
3A
46
82
82
82
46
3A
02
02
44
38
ENDCHAR
STARTCHAR 01EA
ENCODING 490
SWIDTH 720 0
DWIDTH 11 0
BBX 10 15 0 -4
BITMAP
1E00
2180
4080
4040
8040
8040
8040
4040
4080
2180
1E00
0400
0400
0800
0700
ENDCHAR
STARTCHAR 01EB
ENCODING 491
SWIDTH 523 0
DWIDTH 8 0
BBX 7 11 0 -4
BITMAP
38
44
82
82
82
44
3C
08
10
10
0C
ENDCHAR
STARTCHAR 01FA
ENCODING 506
SWIDTH 589 0
DWIDTH 9 0
BBX 8 17 0 0
BITMAP
04
08
00
18
14
08
08
18
14
14
24
22
22
7E
41
41
81
ENDCHAR
STARTCHAR 01FB
ENCODING 507
SWIDTH 523 0
DWIDTH 8 0
BBX 7 13 0 1
BITMAP
18
00
00
18
18
00
3A
46
82
82
82
46
3A
ENDCHAR
STARTCHAR 01FC
ENCODING 508
SWIDTH 785 0
DWIDTH 12 0
BBX 12 14 0 1
BITMAP
0040
0080
0000
03F0
0600
0A00
0A00
1200
13F0
2200
3E00
4200
4200
83F0
ENDCHAR
STARTCHAR 01FD
ENCODING 509
SWIDTH 720 0
DWIDTH 11 0
BBX 10 10 0 0
BITMAP
0600
0800
0000
7B80
0C40
3440
4FC0
8400
8C40
7380
ENDCHAR
STARTCHAR 01FE
ENCODING 510
SWIDTH 720 0
DWIDTH 11 0
BBX 10 14 0 0
BITMAP
0600
0800
0000
1E40
2180
4080
4140
8240
8440
8840
5040
6080
6180
9E00
ENDCHAR
STARTCHAR 01FF
ENCODING 511
SWIDTH 523 0
DWIDTH 8 0
BBX 7 10 0 0
BITMAP
18
20
00
3A
44
8A
92
A2
44
B8
ENDCHAR
STARTCHAR 0200
ENCODING 512
SWIDTH 589 0
DWIDTH 9 0
BBX 8 13 0 1
BITMAP
34
00
08
18
14
14
24
22
22
7E
41
41
81
ENDCHAR
STARTCHAR 0201
ENCODING 513
SWIDTH 523 0
DWIDTH 8 0
BBX 7 10 0 0
BITMAP
2C
12
00
3A
46
82
82
82
46
3A
ENDCHAR
STARTCHAR 0202
ENCODING 514
SWIDTH 589 0
DWIDTH 9 0
BBX 8 13 0 0
BITMAP
1C
00
08
18
14
14
24
22
22
7E
41
41
81
ENDCHAR
STARTCHAR 0203
ENCODING 515
SWIDTH 523 0
DWIDTH 8 0
BBX 7 10 0 0
BITMAP
18
24
00
3A
46
82
82
82
46
3A
ENDCHAR
STARTCHAR 0204
ENCODING 516
SWIDTH 523 0
DWIDTH 8 0
BBX 6 14 1 0
BITMAP
10
58
20
FC
80
80
80
80
FC
80
80
80
80
FC
ENDCHAR
STARTCHAR 0205
ENCODING 517
SWIDTH 458 0
DWIDTH 7 0
BBX 6 10 0 0
BITMAP
68
14
00
38
44
84
FC
80
44
38
ENDCHAR
STARTCHAR 0206
ENCODING 518
SWIDTH 523 0
DWIDTH 8 0
BBX 6 13 1 0
BITMAP
70
00
FC
80
80
80
80
FC
80
80
80
80
FC
ENDCHAR
STARTCHAR 0207
ENCODING 519
SWIDTH 458 0
DWIDTH 7 0
BBX 6 10 0 0
BITMAP
10
28
00
38
44
84
FC
80
44
38
ENDCHAR
STARTCHAR 0208
ENCODING 520
SWIDTH 196 0
DWIDTH 3 0
BBX 4 14 -1 0
BITMAP
80
D0
00
20
20
20
20
20
20
20
20
20
20
20
ENDCHAR
STARTCHAR 0209
ENCODING 521
SWIDTH 196 0
DWIDTH 3 0
BBX 5 10 -1 1
BITMAP
D0
08
00
20
20
20
20
20
20
20
ENDCHAR
STARTCHAR 020A
ENCODING 522
SWIDTH 196 0
DWIDTH 3 0
BBX 3 13 0 0
BITMAP
E0
00
40
40
40
40
40
40
40
40
40
40
40
ENDCHAR
STARTCHAR 020B
ENCODING 523
SWIDTH 196 0
DWIDTH 3 0
BBX 4 10 -1 0
BITMAP
70
90
00
20
20
20
20
20
20
20
ENDCHAR
STARTCHAR 020C
ENCODING 524
SWIDTH 720 0
DWIDTH 11 0
BBX 10 13 0 1
BITMAP
1200
0100
1E00
2180
4080
4040
8040
8040
8040
4040
4080
2180
1E00
ENDCHAR
STARTCHAR 020D
ENCODING 525
SWIDTH 523 0
DWIDTH 8 0
BBX 7 10 0 0
BITMAP
68
16
00
38
44
82
82
82
44
38
ENDCHAR
STARTCHAR 020E
ENCODING 526
SWIDTH 720 0
DWIDTH 11 0
BBX 10 14 0 0
BITMAP
0C00
1200
0000
1E00
2180
4080
4040
8040
8040
8040
4040
4080
2180
1E00
ENDCHAR
STARTCHAR 020F
ENCODING 527
SWIDTH 523 0
DWIDTH 8 0
BBX 7 10 0 0
BITMAP
18
24
00
38
44
82
82
82
44
38
ENDCHAR
STARTCHAR 0210
ENCODING 528
SWIDTH 523 0
DWIDTH 8 0
BBX 6 14 1 0
BITMAP
80
58
20
F8
84
84
84
84
F8
90
88
88
84
84
ENDCHAR
STARTCHAR 0211
ENCODING 529
SWIDTH 327 0
DWIDTH 5 0
BBX 5 10 0 0
BITMAP
D0
28
00
78
40
40
40
40
40
40
ENDCHAR
STARTCHAR 0212
ENCODING 530
SWIDTH 523 0
DWIDTH 8 0
BBX 6 13 1 0
BITMAP
70
00
F8
84
84
84
84
F8
90
88
88
84
84
ENDCHAR
STARTCHAR 0213
ENCODING 531
SWIDTH 327 0
DWIDTH 5 0
BBX 4 10 1 0
BITMAP
40
A0
00
F0
80
80
80
80
80
80
ENDCHAR
STARTCHAR 0214
ENCODING 532
SWIDTH 589 0
DWIDTH 9 0
BBX 7 14 1 0
BITMAP
40
2C
00
82
82
82
82
82
82
82
82
82
46
38
ENDCHAR
STARTCHAR 0215
ENCODING 533
SWIDTH 523 0
DWIDTH 8 0
BBX 5 10 1 1
BITMAP
58
20
00
88
88
88
88
88
88
70
ENDCHAR
STARTCHAR 0216
ENCODING 534
SWIDTH 589 0
DWIDTH 9 0
BBX 7 13 1 0
BITMAP
38
00
82
82
82
82
82
82
82
82
82
46
38
ENDCHAR
STARTCHAR 0217
ENCODING 535
SWIDTH 523 0
DWIDTH 8 0
BBX 5 10 1 0
BITMAP
70
48
00
88
88
88
88
88
88
70
ENDCHAR
STARTCHAR 0218
ENCODING 536
SWIDTH 523 0
DWIDTH 8 0
BBX 6 15 1 -4
BITMAP
78
80
80
80
60
10
08
04
04
04
F8
00
20
20
20
ENDCHAR
STARTCHAR 0219
ENCODING 537
SWIDTH 392 0
DWIDTH 6 0
BBX 4 11 1 -4
BITMAP
F0
80
80
60
10
10
E0
00
60
20
40
ENDCHAR
STARTCHAR 021A
ENCODING 538
SWIDTH 458 0
DWIDTH 7 0
BBX 7 15 0 -4
BITMAP
FE
10
10
10
10
10
10
10
10
10
10
00
10
10
10
ENDCHAR
STARTCHAR 021B
ENCODING 539
SWIDTH 327 0
DWIDTH 5 0
BBX 4 13 0 -3
BITMAP
40
40
F0
40
40
40
40
20
30
00
10
10
20
ENDCHAR
STARTCHAR 022A
ENCODING 554
SWIDTH 720 0
DWIDTH 11 0
BBX 10 15 0 0
BITMAP
1E00
0000
1200
0000
1E00
2180
4080
4040
8040
8040
8040
4040
4080
2180
1E00
ENDCHAR
STARTCHAR 022B
ENCODING 555
SWIDTH 523 0
DWIDTH 8 0
BBX 7 12 0 0
BITMAP
3C
00
00
24
00
38
44
82
82
82
44
38
ENDCHAR
STARTCHAR 022C
ENCODING 556
SWIDTH 720 0
DWIDTH 11 0
BBX 10 17 0 0
BITMAP
1F00
0000
0000
1900
0600
0000
1E00
2180
4080
4040
8040
8040
8040
4040
4080
2180
1E00
ENDCHAR
STARTCHAR 022D
ENCODING 557
SWIDTH 523 0
DWIDTH 8 0
BBX 7 13 0 0
BITMAP
3C
00
00
24
18
00
38
44
82
82
82
44
38
ENDCHAR
STARTCHAR 0230
ENCODING 560
SWIDTH 720 0
DWIDTH 11 0
BBX 10 15 0 0
BITMAP
1E00
0000
0400
0000
1E00
2180
4080
4040
8040
8040
8040
4040
4080
2180
1E00
ENDCHAR
STARTCHAR 0231
ENCODING 561
SWIDTH 523 0
DWIDTH 8 0
BBX 7 12 0 0
BITMAP
3C
00
10
00
00
38
44
82
82
82
44
38
ENDCHAR
STARTCHAR 0232
ENCODING 562
SWIDTH 523 0
DWIDTH 8 0
BBX 7 13 0 0
BITMAP
3C
00
82
42
44
24
28
18
18
10
10
10
10
ENDCHAR
STARTCHAR 0233
ENCODING 563
SWIDTH 458 0
DWIDTH 7 0
BBX 6 14 0 -4
BITMAP
78
00
00
84
44
48
48
28
30
30
10
20
20
40
ENDCHAR
STARTCHAR 0237
ENCODING 567
SWIDTH 196 0
DWIDTH 3 0
BBX 3 11 -1 -4
BITMAP
20
20
20
20
20
20
20
20
20
20
E0
ENDCHAR
STARTCHAR 0259
ENCODING 601
SWIDTH 458 0
DWIDTH 7 0
BBX 6 7 1 0
BITMAP
70
88
04
FC
84
88
70
ENDCHAR
STARTCHAR 02BC
ENCODING 700
SWIDTH 261 0
DWIDTH 4 0
BBX 1 3 1 7
BITMAP
80
80
80
ENDCHAR
STARTCHAR 02C6
ENCODING 710
SWIDTH 523 0
DWIDTH 8 0
BBX 4 2 2 8
BITMAP
40
B0
ENDCHAR
STARTCHAR 02C7
ENCODING 711
SWIDTH 523 0
DWIDTH 8 0
BBX 4 2 2 8
BITMAP
90
60
ENDCHAR
STARTCHAR 02C9
ENCODING 713
SWIDTH 458 0
DWIDTH 7 0
BBX 5 1 1 8
BITMAP
F8
ENDCHAR
STARTCHAR 02D8
ENCODING 728
SWIDTH 523 0
DWIDTH 8 0
BBX 4 2 2 8
BITMAP
90
E0
ENDCHAR
STARTCHAR 02D9
ENCODING 729
SWIDTH 261 0
DWIDTH 4 0
BBX 2 1 1 8
BITMAP
C0
ENDCHAR
STARTCHAR 02DA
ENCODING 730
SWIDTH 392 0
DWIDTH 6 0
BBX 2 2 2 8
BITMAP
C0
C0
ENDCHAR
STARTCHAR 02DB
ENCODING 731
SWIDTH 327 0
DWIDTH 5 0
BBX 3 4 1 -4
BITMAP
80
80
80
E0
ENDCHAR
STARTCHAR 02DC
ENCODING 732
SWIDTH 523 0
DWIDTH 8 0
BBX 4 1 2 8
BITMAP
F0
ENDCHAR
STARTCHAR 02DD
ENCODING 733
SWIDTH 523 0
DWIDTH 8 0
BBX 5 3 2 8
BITMAP
48
90
20
ENDCHAR
STARTCHAR 0300
ENCODING 768
SWIDTH 0 0
DWIDTH 0 0
BBX 3 2 1 8
BITMAP
80
60
ENDCHAR
STARTCHAR 0301
ENCODING 769
SWIDTH 0 0
DWIDTH 0 0
BBX 2 2 3 8
BITMAP
40
80
ENDCHAR
STARTCHAR 0302
ENCODING 770
SWIDTH 0 0
DWIDTH 0 0
BBX 4 2 2 8
BITMAP
40
B0
ENDCHAR
STARTCHAR 0303
ENCODING 771
SWIDTH 0 0
DWIDTH 0 0
BBX 4 1 2 8
BITMAP
F0
ENDCHAR
STARTCHAR 0304
ENCODING 772
SWIDTH 0 0
DWIDTH 0 0
BBX 5 1 1 8
BITMAP
F8
ENDCHAR
STARTCHAR 0306
ENCODING 774
SWIDTH 0 0
DWIDTH 0 0
BBX 4 2 2 8
BITMAP
90
60
ENDCHAR
STARTCHAR 0307
ENCODING 775
SWIDTH 0 0
DWIDTH 0 0
BBX 1 1 2 8
BITMAP
80
ENDCHAR
STARTCHAR 0308
ENCODING 776
SWIDTH 0 0
DWIDTH 0 0
BBX 4 1 2 8
BITMAP
B0
ENDCHAR
STARTCHAR 0309
ENCODING 777
SWIDTH 0 0
DWIDTH 0 0
BBX 3 3 3 7
BITMAP
C0
20
40
ENDCHAR
STARTCHAR 030A
ENCODING 778
SWIDTH 0 0
DWIDTH 0 0
BBX 2 2 2 8
BITMAP
C0
C0
ENDCHAR
STARTCHAR 030B
ENCODING 779
SWIDTH 0 0
DWIDTH 0 0
BBX 5 2 2 8
BITMAP
48
90
ENDCHAR
STARTCHAR 030C
ENCODING 780
SWIDTH 0 0
DWIDTH 0 0
BBX 4 2 2 8
BITMAP
90
60
ENDCHAR
STARTCHAR 030F
ENCODING 783
SWIDTH 0 0
DWIDTH 0 0
BBX 5 2 2 8
BITMAP
A0
58
ENDCHAR
STARTCHAR 0311
ENCODING 785
SWIDTH 0 0
DWIDTH 0 0
BBX 4 2 2 7
BITMAP
E0
90
ENDCHAR
STARTCHAR 0312
ENCODING 786
SWIDTH 0 0
DWIDTH 0 0
BBX 1 2 1 7
BITMAP
80
80
ENDCHAR
STARTCHAR 031B
ENCODING 795
SWIDTH 0 0
DWIDTH 0 0
BBX 2 2 3 8
BITMAP
40
80
ENDCHAR
STARTCHAR 0323
ENCODING 803
SWIDTH 0 0
DWIDTH 0 0
BBX 1 1 2 -2
BITMAP
80
ENDCHAR
STARTCHAR 0324
ENCODING 804
SWIDTH 0 0
DWIDTH 0 0
BBX 5 1 1 -2
BITMAP
D8
ENDCHAR
STARTCHAR 0326
ENCODING 806
SWIDTH 0 0
DWIDTH 0 0
BBX 2 3 1 -4
BITMAP
C0
40
80
ENDCHAR
STARTCHAR 0327
ENCODING 807
SWIDTH 0 0
DWIDTH 0 0
BBX 3 3 2 -3
BITMAP
80
60
C0
ENDCHAR
STARTCHAR 0328
ENCODING 808
SWIDTH 0 0
DWIDTH 0 0
BBX 3 4 1 -4
BITMAP
40
80
80
E0
ENDCHAR
STARTCHAR 032E
ENCODING 814
SWIDTH 0 0
DWIDTH 0 0
BBX 4 2 2 -3
BITMAP
90
60
ENDCHAR
STARTCHAR 0331
ENCODING 817
SWIDTH 0 0
DWIDTH 0 0
BBX 5 1 1 -2
BITMAP
F8
ENDCHAR
STARTCHAR 1E80
ENCODING 7808
SWIDTH 785 0
DWIDTH 12 0
BBX 11 14 0 0
BITMAP
0800
0400
0000
8420
8620
4A20
4A40
4A40
4A40
5140
3140
3140
3180
3080
ENDCHAR
STARTCHAR 1E81
ENCODING 7809
SWIDTH 654 0
DWIDTH 10 0
BBX 9 10 0 1
BITMAP
0800
0400
0000
8880
4880
5500
5500
5500
6300
2200
ENDCHAR
STARTCHAR 1E82
ENCODING 7810
SWIDTH 785 0
DWIDTH 12 0
BBX 11 13 0 1
BITMAP
0200
0400
8420
8620
4A20
4A40
4A40
4A40
5140
3140
3140
3180
3080
ENDCHAR
STARTCHAR 1E83
ENCODING 7811
SWIDTH 654 0
DWIDTH 10 0
BBX 9 10 0 1
BITMAP
0C00
0000
0000
8880
4880
5500
5500
5500
6300
2200
ENDCHAR
STARTCHAR 1E84
ENCODING 7812
SWIDTH 785 0
DWIDTH 12 0
BBX 11 13 0 0
BITMAP
0900
0000
8420
8620
4A20
4A40
4A40
4A40
5140
3140
3140
3180
3080
ENDCHAR
STARTCHAR 1E85
ENCODING 7813
SWIDTH 654 0
DWIDTH 10 0
BBX 9 9 0 0
BITMAP
1200
0000
8880
4880
5500
5500
5500
6300
2200
ENDCHAR
STARTCHAR 1E9E
ENCODING 7838
SWIDTH 589 0
DWIDTH 9 0
BBX 7 11 1 0
BITMAP
3C
44
84
88
90
9C
82
82
82
82
BC
ENDCHAR
STARTCHAR 1EA0
ENCODING 7840
SWIDTH 589 0
DWIDTH 9 0
BBX 8 13 0 -2
BITMAP
08
18
14
14
24
22
22
7E
41
41
81
00
08
ENDCHAR
STARTCHAR 1EA1
ENCODING 7841
SWIDTH 523 0
DWIDTH 8 0
BBX 7 9 0 -2
BITMAP
3A
46
82
82
82
46
3A
00
10
ENDCHAR
STARTCHAR 1EA2
ENCODING 7842
SWIDTH 589 0
DWIDTH 9 0
BBX 8 15 0 0
BITMAP
08
14
04
08
08
18
14
14
24
22
22
7E
41
41
81
ENDCHAR
STARTCHAR 1EA3
ENCODING 7843
SWIDTH 523 0
DWIDTH 8 0
BBX 7 11 0 0
BITMAP
18
08
08
00
3A
46
82
82
82
46
3A
ENDCHAR
STARTCHAR 1EA4
ENCODING 7844
SWIDTH 589 0
DWIDTH 9 0
BBX 8 16 0 0
BITMAP
01
02
08
34
00
08
18
14
14
24
22
22
7E
41
41
81
ENDCHAR
STARTCHAR 1EA5
ENCODING 7845
SWIDTH 523 0
DWIDTH 8 0
BBX 7 13 0 0
BITMAP
08
10
00
10
2C
00
3A
46
82
82
82
46
3A
ENDCHAR
STARTCHAR 1EA6
ENCODING 7846
SWIDTH 589 0
DWIDTH 9 0
BBX 8 15 0 1
BITMAP
06
08
14
00
08
18
14
14
24
22
22
7E
41
41
81
ENDCHAR
STARTCHAR 1EA7
ENCODING 7847
SWIDTH 523 0
DWIDTH 8 0
BBX 7 13 0 0
BITMAP
10
08
00
10
2C
00
3A
46
82
82
82
46
3A
ENDCHAR
STARTCHAR 1EA8
ENCODING 7848
SWIDTH 589 0
DWIDTH 9 0
BBX 8 17 0 0
BITMAP
0E
02
02
08
34
00
08
18
14
14
24
22
22
7E
41
41
81
ENDCHAR
STARTCHAR 1EA9
ENCODING 7849
SWIDTH 523 0
DWIDTH 8 0
BBX 7 14 0 0
BITMAP
38
08
08
00
10
2C
00
3A
46
82
82
82
46
3A
ENDCHAR
STARTCHAR 1EAA
ENCODING 7850
SWIDTH 589 0
DWIDTH 9 0
BBX 8 16 0 0
BITMAP
12
2C
08
14
00
08
18
14
14
24
22
22
7E
41
41
81
ENDCHAR
STARTCHAR 1EAB
ENCODING 7851
SWIDTH 523 0
DWIDTH 8 0
BBX 7 13 0 0
BITMAP
20
1C
00
10
2C
00
3A
46
82
82
82
46
3A
ENDCHAR
STARTCHAR 1EAC
ENCODING 7852
SWIDTH 589 0
DWIDTH 9 0
BBX 8 16 0 -2
BITMAP
08
14
00
08
18
14
14
24
22
22
7E
41
41
81
00
08
ENDCHAR
STARTCHAR 1EAD
ENCODING 7853
SWIDTH 523 0
DWIDTH 8 0
BBX 7 12 0 -2
BITMAP
10
2C
00
3A
46
82
82
82
46
3A
00
10
ENDCHAR
STARTCHAR 1EAE
ENCODING 7854
SWIDTH 589 0
DWIDTH 9 0
BBX 8 16 0 0
BITMAP
04
18
04
1C
00
08
18
14
14
24
22
22
7E
41
41
81
ENDCHAR
STARTCHAR 1EAF
ENCODING 7855
SWIDTH 523 0
DWIDTH 8 0
BBX 7 13 0 0
BITMAP
08
10
00
00
38
00
3A
46
82
82
82
46
3A
ENDCHAR
STARTCHAR 1EB0
ENCODING 7856
SWIDTH 589 0
DWIDTH 9 0
BBX 8 16 0 0
BITMAP
10
08
04
1C
00
08
18
14
14
24
22
22
7E
41
41
81
ENDCHAR
STARTCHAR 1EB1
ENCODING 7857
SWIDTH 523 0
DWIDTH 8 0
BBX 7 13 0 0
BITMAP
10
08
00
00
38
00
3A
46
82
82
82
46
3A
ENDCHAR
STARTCHAR 1EB2
ENCODING 7858
SWIDTH 589 0
DWIDTH 9 0
BBX 8 17 0 0
BITMAP
08
14
08
00
1C
00
08
18
14
14
24
22
22
7E
41
41
81
ENDCHAR
STARTCHAR 1EB3
ENCODING 7859
SWIDTH 523 0
DWIDTH 8 0
BBX 7 13 0 0
BITMAP
38
08
08
20
38
00
3A
46
82
82
82
46
3A
ENDCHAR
STARTCHAR 1EB4
ENCODING 7860
SWIDTH 589 0
DWIDTH 9 0
BBX 8 15 0 0
BITMAP
3C
00
1C
00
08
18
14
14
24
22
22
7E
41
41
81
ENDCHAR
STARTCHAR 1EB5
ENCODING 7861
SWIDTH 523 0
DWIDTH 8 0
BBX 7 12 0 0
BITMAP
3C
00
20
38
00
3A
46
82
82
82
46
3A
ENDCHAR
STARTCHAR 1EB6
ENCODING 7862
SWIDTH 589 0
DWIDTH 9 0
BBX 8 16 0 -2
BITMAP
04
1C
00
08
18
14
14
24
22
22
7E
41
41
81
00
08
ENDCHAR
STARTCHAR 1EB7
ENCODING 7863
SWIDTH 523 0
DWIDTH 8 0
BBX 7 12 0 -2
BITMAP
24
38
00
3A
46
82
82
82
46
3A
00
10
ENDCHAR
STARTCHAR 1EB8
ENCODING 7864
SWIDTH 523 0
DWIDTH 8 0
BBX 6 13 1 -2
BITMAP
FC
80
80
80
80
FC
80
80
80
80
FC
00
20
ENDCHAR
STARTCHAR 1EB9
ENCODING 7865
SWIDTH 458 0
DWIDTH 7 0
BBX 6 9 0 -2
BITMAP
38
44
84
FC
80
44
38
00
10
ENDCHAR
STARTCHAR 1EBA
ENCODING 7866
SWIDTH 523 0
DWIDTH 8 0
BBX 6 15 1 0
BITMAP
20
10
10
00
FC
80
80
80
80
FC
80
80
80
80
FC
ENDCHAR
STARTCHAR 1EBB
ENCODING 7867
SWIDTH 458 0
DWIDTH 7 0
BBX 6 11 0 0
BITMAP
10
28
08
10
38
44
84
FC
80
44
38
ENDCHAR
STARTCHAR 1EBC
ENCODING 7868
SWIDTH 523 0
DWIDTH 8 0
BBX 6 13 1 0
BITMAP
78
00
FC
80
80
80
80
FC
80
80
80
80
FC
ENDCHAR
STARTCHAR 1EBD
ENCODING 7869
SWIDTH 458 0
DWIDTH 7 0
BBX 6 10 0 0
BITMAP
24
18
00
38
44
84
FC
80
44
38
ENDCHAR
STARTCHAR 1EBE
ENCODING 7870
SWIDTH 523 0
DWIDTH 8 0
BBX 7 16 1 0
BITMAP
02
0C
20
58
00
FC
80
80
80
80
FC
80
80
80
80
FC
ENDCHAR
STARTCHAR 1EBF
ENCODING 7871
SWIDTH 458 0
DWIDTH 7 0
BBX 6 13 0 0
BITMAP
18
20
00
10
28
00
38
44
84
FC
80
44
38
ENDCHAR
STARTCHAR 1EC0
ENCODING 7872
SWIDTH 523 0
DWIDTH 8 0
BBX 6 15 1 1
BITMAP
08
24
58
00
FC
80
80
80
80
FC
80
80
80
80
FC
ENDCHAR
STARTCHAR 1EC1
ENCODING 7873
SWIDTH 458 0
DWIDTH 7 0
BBX 6 13 0 0
BITMAP
30
08
00
10
28
00
38
44
84
FC
80
44
38
ENDCHAR
STARTCHAR 1EC2
ENCODING 7874
SWIDTH 523 0
DWIDTH 8 0
BBX 6 17 1 0
BITMAP
1C
04
04
28
58
00
FC
80
80
80
80
FC
80
80
80
80
FC
ENDCHAR
STARTCHAR 1EC3
ENCODING 7875
SWIDTH 458 0
DWIDTH 7 0
BBX 6 14 0 0
BITMAP
38
08
08
10
10
28
00
38
44
84
FC
80
44
38
ENDCHAR
STARTCHAR 1EC4
ENCODING 7876
SWIDTH 523 0
DWIDTH 8 0
BBX 6 16 1 0
BITMAP
08
F8
20
58
00
FC
80
80
80
80
FC
80
80
80
80
FC
ENDCHAR
STARTCHAR 1EC5
ENCODING 7877
SWIDTH 458 0
DWIDTH 7 0
BBX 6 13 0 0
BITMAP
24
18
00
10
28
00
38
44
84
FC
80
44
38
ENDCHAR
STARTCHAR 1EC6
ENCODING 7878
SWIDTH 523 0
DWIDTH 8 0
BBX 6 16 1 -2
BITMAP
20
58
00
FC
80
80
80
80
FC
80
80
80
80
FC
00
20
ENDCHAR
STARTCHAR 1EC7
ENCODING 7879
SWIDTH 458 0
DWIDTH 7 0
BBX 6 12 0 -2
BITMAP
10
28
00
38
44
84
FC
80
44
38
00
10
ENDCHAR
STARTCHAR 1EC8
ENCODING 7880
SWIDTH 196 0
DWIDTH 3 0
BBX 3 15 0 0
BITMAP
40
A0
20
40
40
40
40
40
40
40
40
40
40
40
40
ENDCHAR
STARTCHAR 1EC9
ENCODING 7881
SWIDTH 196 0
DWIDTH 3 0
BBX 3 11 0 0
BITMAP
C0
20
20
40
40
40
40
40
40
40
40
ENDCHAR
STARTCHAR 1ECA
ENCODING 7882
SWIDTH 196 0
DWIDTH 3 0
BBX 1 13 1 -2
BITMAP
80
80
80
80
80
80
80
80
80
80
80
00
80
ENDCHAR
STARTCHAR 1ECB
ENCODING 7883
SWIDTH 196 0
DWIDTH 3 0
BBX 1 13 1 -2
BITMAP
80
00
00
00
80
80
80
80
80
80
80
00
80
ENDCHAR
STARTCHAR 1ECC
ENCODING 7884
SWIDTH 720 0
DWIDTH 11 0
BBX 10 15 0 -4
BITMAP
1E00
2180
4080
4040
8040
8040
8040
4040
4080
2180
1E00
0000
0000
0000
0400
ENDCHAR
STARTCHAR 1ECD
ENCODING 7885
SWIDTH 523 0
DWIDTH 8 0
BBX 7 9 0 -2
BITMAP
38
44
82
82
82
44
38
00
10
ENDCHAR
STARTCHAR 1ECE
ENCODING 7886
SWIDTH 720 0
DWIDTH 11 0
BBX 10 15 0 0
BITMAP
0C00
0200
0200
0400
1E00
2180
4080
4040
8040
8040
8040
4040
4080
2180
1E00
ENDCHAR
STARTCHAR 1ECF
ENCODING 7887
SWIDTH 523 0
DWIDTH 8 0
BBX 7 11 0 0
BITMAP
10
08
08
10
38
44
82
82
82
44
38
ENDCHAR
STARTCHAR 1ED0
ENCODING 7888
SWIDTH 720 0
DWIDTH 11 0
BBX 10 16 0 0
BITMAP
0080
0100
0400
0A00
0000
1E00
2180
4080
4040
8040
8040
8040
4040
4080
2180
1E00
ENDCHAR
STARTCHAR 1ED1
ENCODING 7889
SWIDTH 523 0
DWIDTH 8 0
BBX 7 13 0 0
BITMAP
08
30
00
10
28
00
38
44
82
82
82
44
38
ENDCHAR
STARTCHAR 1ED2
ENCODING 7890
SWIDTH 720 0
DWIDTH 11 0
BBX 10 15 0 1
BITMAP
0200
0100
0E00
0000
1E00
2180
4080
4040
8040
8040
8040
4040
4080
2180
1E00
ENDCHAR
STARTCHAR 1ED3
ENCODING 7891
SWIDTH 523 0
DWIDTH 8 0
BBX 7 13 0 0
BITMAP
10
08
00
10
28
00
38
44
82
82
82
44
38
ENDCHAR
STARTCHAR 1ED4
ENCODING 7892
SWIDTH 720 0
DWIDTH 11 0
BBX 10 17 0 0
BITMAP
0300
0100
0100
0000
0E00
0000
1E00
2180
4080
4040
8040
8040
8040
4040
4080
2180
1E00
ENDCHAR
STARTCHAR 1ED5
ENCODING 7893
SWIDTH 523 0
DWIDTH 8 0
BBX 7 14 0 0
BITMAP
38
08
08
10
10
2C
00
38
44
82
82
82
44
38
ENDCHAR
STARTCHAR 1ED6
ENCODING 7894
SWIDTH 720 0
DWIDTH 11 0
BBX 10 15 0 0
BITMAP
1E00
0400
0A00
0000
1E00
2180
4080
4040
8040
8040
8040
4040
4080
2180
1E00
ENDCHAR
STARTCHAR 1ED7
ENCODING 7895
SWIDTH 523 0
DWIDTH 8 0
BBX 7 13 0 0
BITMAP
24
18
00
10
28
00
38
44
82
82
82
44
38
ENDCHAR
STARTCHAR 1ED8
ENCODING 7896
SWIDTH 720 0
DWIDTH 11 0
BBX 10 17 0 -3
BITMAP
0E00
0000
1E00
2180
4080
4040
8040
8040
8040
4040
4080
2180
1E00
0000
0000
0000
0400
ENDCHAR
STARTCHAR 1ED9
ENCODING 7897
SWIDTH 523 0
DWIDTH 8 0
BBX 7 12 0 -2
BITMAP
10
28
00
38
44
82
82
82
44
38
00
10
ENDCHAR
STARTCHAR 1EDA
ENCODING 7898
SWIDTH 720 0
DWIDTH 11 0
BBX 11 14 0 0
BITMAP
0600
0800
0020
1E20
21C0
4080
4040
8040
8040
8040
4040
4080
2180
1E00
ENDCHAR
STARTCHAR 1EDB
ENCODING 7899
SWIDTH 523 0
DWIDTH 8 0
BBX 8 10 0 0
BITMAP
18
20
01
39
46
82
82
82
44
38
ENDCHAR
STARTCHAR 1EDC
ENCODING 7900
SWIDTH 720 0
DWIDTH 11 0
BBX 11 14 0 0
BITMAP
0C00
0200
0020
1E20
21C0
4080
4040
8040
8040
8040
4040
4080
2180
1E00
ENDCHAR
STARTCHAR 1EDD
ENCODING 7901
SWIDTH 523 0
DWIDTH 8 0
BBX 8 10 0 0
BITMAP
10
08
01
39
46
82
82
82
44
38
ENDCHAR
STARTCHAR 1EDE
ENCODING 7902
SWIDTH 720 0
DWIDTH 11 0
BBX 11 15 0 0
BITMAP
0C00
0200
0200
0420
1E20
21C0
4080
4040
8040
8040
8040
4040
4080
2180
1E00
ENDCHAR
STARTCHAR 1EDF
ENCODING 7903
SWIDTH 523 0
DWIDTH 8 0
BBX 8 11 0 0
BITMAP
10
08
08
11
39
46
82
82
82
44
38
ENDCHAR
STARTCHAR 1EE0
ENCODING 7904
SWIDTH 720 0
DWIDTH 11 0
BBX 11 14 0 0
BITMAP
1900
0600
0000
1E20
21C0
4080
4040
8040
8040
8040
4040
4080
2180
1E00
ENDCHAR
STARTCHAR 1EE1
ENCODING 7905
SWIDTH 523 0
DWIDTH 8 0
BBX 8 10 0 0
BITMAP
24
18
01
39
46
82
82
82
44
38
ENDCHAR
STARTCHAR 1EE2
ENCODING 7906
SWIDTH 720 0
DWIDTH 11 0
BBX 11 16 0 -4
BITMAP
0020
1E20
21C0
4080
4040
8040
8040
8040
4040
4080
2180
1E00
0000
0000
0000
0400
ENDCHAR
STARTCHAR 1EE3
ENCODING 7907
SWIDTH 523 0
DWIDTH 8 0
BBX 8 10 0 -2
BITMAP
01
39
46
82
82
82
44
38
00
10
ENDCHAR
STARTCHAR 1EE4
ENCODING 7908
SWIDTH 589 0
DWIDTH 9 0
BBX 7 13 1 -2
BITMAP
82
82
82
82
82
82
82
82
82
46
38
00
10
ENDCHAR
STARTCHAR 1EE5
ENCODING 7909
SWIDTH 523 0
DWIDTH 8 0
BBX 5 9 1 -2
BITMAP
88
88
88
88
88
88
70
00
20
ENDCHAR
STARTCHAR 1EE6
ENCODING 7910
SWIDTH 589 0
DWIDTH 9 0
BBX 7 15 1 0
BITMAP
10
28
08
00
82
82
82
82
82
82
82
82
82
46
38
ENDCHAR
STARTCHAR 1EE7
ENCODING 7911
SWIDTH 523 0
DWIDTH 8 0
BBX 5 11 1 0
BITMAP
20
10
10
20
88
88
88
88
88
88
70
ENDCHAR
STARTCHAR 1EE8
ENCODING 7912
SWIDTH 720 0
DWIDTH 11 0
BBX 10 15 1 0
BITMAP
0800
1800
2040
0040
8380
8200
8200
8200
8200
8200
8200
8200
8200
4600
3800
ENDCHAR
STARTCHAR 1EE9
ENCODING 7913
SWIDTH 589 0
DWIDTH 9 0
BBX 8 11 1 0
BITMAP
10
30
01
01
86
88
88
88
88
88
70
ENDCHAR
STARTCHAR 1EEA
ENCODING 7914
SWIDTH 720 0
DWIDTH 11 0
BBX 10 14 1 1
BITMAP
1000
0840
0040
8380
8200
8200
8200
8200
8200
8200
8200
8200
4600
3800
ENDCHAR
STARTCHAR 1EEB
ENCODING 7915
SWIDTH 589 0
DWIDTH 9 0
BBX 8 10 1 1
BITMAP
20
11
01
86
88
88
88
88
88
70
ENDCHAR
STARTCHAR 1EEC
ENCODING 7916
SWIDTH 720 0
DWIDTH 11 0
BBX 10 15 1 0
BITMAP
1000
2800
0840
1040
8380
8200
8200
8200
8200
8200
8200
8200
8200
4600
3800
ENDCHAR
STARTCHAR 1EED
ENCODING 7917
SWIDTH 589 0
DWIDTH 9 0
BBX 8 11 1 0
BITMAP
20
10
11
21
86
88
88
88
88
88
70
ENDCHAR
STARTCHAR 1EEE
ENCODING 7918
SWIDTH 720 0
DWIDTH 11 0
BBX 10 14 1 0
BITMAP
3C00
0040
0040
8380
8200
8200
8200
8200
8200
8200
8200
8200
4600
3800
ENDCHAR
STARTCHAR 1EEF
ENCODING 7919
SWIDTH 589 0
DWIDTH 9 0
BBX 8 10 1 0
BITMAP
78
01
01
86
88
88
88
88
88
70
ENDCHAR
STARTCHAR 1EF0
ENCODING 7920
SWIDTH 720 0
DWIDTH 11 0
BBX 10 15 1 -2
BITMAP
0040
0040
8380
8200
8200
8200
8200
8200
8200
8200
8200
4600
3800
0000
1000
ENDCHAR
STARTCHAR 1EF1
ENCODING 7921
SWIDTH 589 0
DWIDTH 9 0
BBX 8 11 1 -2
BITMAP
01
01
86
88
88
88
88
88
70
00
20
ENDCHAR
STARTCHAR 1EF2
ENCODING 7922
SWIDTH 523 0
DWIDTH 8 0
BBX 7 14 0 0
BITMAP
20
10
00
82
42
44
24
28
18
18
10
10
10
10
ENDCHAR
STARTCHAR 1EF3
ENCODING 7923
SWIDTH 458 0
DWIDTH 7 0
BBX 6 15 0 -4
BITMAP
20
30
08
00
84
44
48
48
28
30
30
10
20
20
40
ENDCHAR
STARTCHAR 1EF4
ENCODING 7924
SWIDTH 523 0
DWIDTH 8 0
BBX 7 13 0 -2
BITMAP
82
42
44
24
28
18
18
10
10
10
10
00
10
ENDCHAR
STARTCHAR 1EF5
ENCODING 7925
SWIDTH 458 0
DWIDTH 7 0
BBX 6 11 0 -4
BITMAP
84
44
48
48
28
30
30
10
30
20
40
ENDCHAR
STARTCHAR 1EF6
ENCODING 7926
SWIDTH 523 0
DWIDTH 8 0
BBX 7 15 0 0
BITMAP
10
08
08
00
82
42
44
24
28
18
18
10
10
10
10
ENDCHAR
STARTCHAR 1EF7
ENCODING 7927
SWIDTH 458 0
DWIDTH 7 0
BBX 6 15 0 -4
BITMAP
30
08
08
10
84
44
48
48
28
30
30
10
20
20
40
ENDCHAR
STARTCHAR 1EF8
ENCODING 7928
SWIDTH 523 0
DWIDTH 8 0
BBX 7 13 0 0
BITMAP
3C
00
82
42
44
24
28
18
18
10
10
10
10
ENDCHAR
STARTCHAR 1EF9
ENCODING 7929
SWIDTH 458 0
DWIDTH 7 0
BBX 6 14 0 -4
BITMAP
78
00
00
84
44
48
48
28
30
30
10
20
20
40
ENDCHAR
STARTCHAR 2013
ENCODING 8211
SWIDTH 458 0
DWIDTH 7 0
BBX 6 1 0 3
BITMAP
FC
ENDCHAR
STARTCHAR 2014
ENCODING 8212
SWIDTH 785 0
DWIDTH 12 0
BBX 12 1 0 3
BITMAP
FFF0
ENDCHAR
STARTCHAR 2018
ENCODING 8216
SWIDTH 196 0
DWIDTH 3 0
BBX 2 3 1 8
BITMAP
80
80
C0
ENDCHAR
STARTCHAR 2019
ENCODING 8217
SWIDTH 196 0
DWIDTH 3 0
BBX 2 3 0 7
BITMAP
C0
C0
40
ENDCHAR
STARTCHAR 201A
ENCODING 8218
SWIDTH 261 0
DWIDTH 4 0
BBX 2 4 1 -2
BITMAP
80
C0
80
80
ENDCHAR
STARTCHAR 201C
ENCODING 8220
SWIDTH 458 0
DWIDTH 7 0
BBX 5 4 1 7
BITMAP
50
90
D8
D8
ENDCHAR
STARTCHAR 201D
ENCODING 8221
SWIDTH 458 0
DWIDTH 7 0
BBX 5 3 1 7
BITMAP
D0
D8
90
ENDCHAR
STARTCHAR 201E
ENCODING 8222
SWIDTH 392 0
DWIDTH 6 0
BBX 5 4 1 -2
BITMAP
90
D8
90
80
ENDCHAR
STARTCHAR 2020
ENCODING 8224
SWIDTH 392 0
DWIDTH 6 0
BBX 4 12 1 -2
BITMAP
40
40
40
F0
40
40
40
40
40
40
40
40
ENDCHAR
STARTCHAR 2021
ENCODING 8225
SWIDTH 458 0
DWIDTH 7 0
BBX 5 13 1 -2
BITMAP
20
20
20
F8
20
20
20
F8
20
20
20
20
20
ENDCHAR
STARTCHAR 2022
ENCODING 8226
SWIDTH 523 0
DWIDTH 8 0
BBX 3 3 2 3
BITMAP
40
E0
60
ENDCHAR
STARTCHAR 2026
ENCODING 8230
SWIDTH 720 0
DWIDTH 11 0
BBX 9 2 1 0
BITMAP
C880
C880
ENDCHAR
STARTCHAR 2030
ENCODING 8240
SWIDTH 850 0
DWIDTH 13 0
BBX 11 10 1 0
BITMAP
2000
D040
9180
7200
0C00
1000
7CE0
9320
1320
0CC0
ENDCHAR
STARTCHAR 2039
ENCODING 8249
SWIDTH 261 0
DWIDTH 4 0
BBX 2 5 1 0
BITMAP
40
80
80
80
40
ENDCHAR
STARTCHAR 203A
ENCODING 8250
SWIDTH 261 0
DWIDTH 4 0
BBX 2 5 1 0
BITMAP
80
80
40
40
80
ENDCHAR
STARTCHAR 2044
ENCODING 8260
SWIDTH 196 0
DWIDTH 3 0
BBX 6 11 -2 0
BITMAP
04
04
08
08
10
10
20
20
40
80
80
ENDCHAR
STARTCHAR 2074
ENCODING 8308
SWIDTH 261 0
DWIDTH 4 0
BBX 2 3 0 7
BITMAP
40
40
C0
ENDCHAR
STARTCHAR 20A1
ENCODING 8353
SWIDTH 523 0
DWIDTH 8 0
BBX 7 12 0 -1
BITMAP
1E
26
4A
4C
94
98
98
68
70
30
5E
60
ENDCHAR
STARTCHAR 20A3
ENCODING 8355
SWIDTH 458 0
DWIDTH 7 0
BBX 6 11 0 0
BITMAP
7C
40
40
40
40
7C
40
40
F0
40
40
ENDCHAR
STARTCHAR 20A4
ENCODING 8356
SWIDTH 589 0
DWIDTH 9 0
BBX 7 11 1 0
BITMAP
38
44
80
80
40
F8
40
F8
20
62
9E
ENDCHAR
STARTCHAR 20A6
ENCODING 8358
SWIDTH 654 0
DWIDTH 10 0
BBX 10 11 0 0
BITMAP
4080
6080
5080
5080
4880
FFC0
4480
4280
4280
4180
4180
ENDCHAR
STARTCHAR 20A7
ENCODING 8359
SWIDTH 523 0
DWIDTH 8 0
BBX 8 11 0 0
BITMAP
7C
44
42
FF
42
44
78
40
40
40
40
ENDCHAR
STARTCHAR 20A9
ENCODING 8361
SWIDTH 785 0
DWIDTH 12 0
BBX 11 11 0 0
BITMAP
8420
4620
4A20
4A40
4A40
FFE0
5140
3140
3140
3180
3080
ENDCHAR
STARTCHAR 20AB
ENCODING 8363
SWIDTH 523 0
DWIDTH 8 0
BBX 7 13 1 -2
BITMAP
04
04
1E
04
74
8C
84
84
84
84
7C
00
78
ENDCHAR
STARTCHAR 20AC
ENCODING 8364
SWIDTH 654 0
DWIDTH 10 0
BBX 9 11 0 0
BITMAP
0F80
1000
2000
4000
FF00
4000
FF00
4000
2000
1000
0F80
ENDCHAR
STARTCHAR 20AD
ENCODING 8365
SWIDTH 458 0
DWIDTH 7 0
BBX 7 11 0 0
BITMAP
44
44
48
50
50
FE
60
50
48
44
42
ENDCHAR
STARTCHAR 20B1
ENCODING 8369
SWIDTH 523 0
DWIDTH 8 0
BBX 7 11 0 0
BITMAP
78
44
42
FE
FE
42
44
78
40
40
40
ENDCHAR
STARTCHAR 20B2
ENCODING 8370
SWIDTH 720 0
DWIDTH 11 0
BBX 10 14 0 -2
BITMAP
0400
1E00
2580
4400
4400
8400
87C0
8440
4440
4480
2580
1E00
0400
0400
ENDCHAR
STARTCHAR 20B5
ENCODING 8373
SWIDTH 523 0
DWIDTH 8 0
BBX 7 14 0 -2
BITMAP
08
1E
28
48
48
88
88
88
48
48
28
1E
08
08
ENDCHAR
STARTCHAR 20B9
ENCODING 8377
SWIDTH 523 0
DWIDTH 8 0
BBX 6 11 1 0
BITMAP
FC
08
08
FC
08
F0
80
40
20
10
08
ENDCHAR
STARTCHAR 20BA
ENCODING 8378
SWIDTH 458 0
DWIDTH 7 0
BBX 6 11 0 0
BITMAP
40
40
40
58
E0
58
E0
40
44
44
78
ENDCHAR
STARTCHAR 20BC
ENCODING 8380
SWIDTH 523 0
DWIDTH 8 0
BBX 6 11 1 0
BITMAP
20
70
A8
A4
A4
A4
A4
A4
A4
A4
A4
ENDCHAR
STARTCHAR 20BD
ENCODING 8381
SWIDTH 523 0
DWIDTH 8 0
BBX 7 11 0 0
BITMAP
7C
44
42
42
42
44
F8
40
E0
40
40
ENDCHAR
STARTCHAR 2116
ENCODING 8470
SWIDTH 1178 0
DWIDTH 18 0
BBX 16 11 1 0
BITMAP
811C
C122
A141
A141
9141
9122
891C
8900
8500
8300
837F
ENDCHAR
STARTCHAR 2122
ENCODING 8482
SWIDTH 392 0
DWIDTH 6 0
BBX 4 3 1 8
BITMAP
B0
D0
A0
ENDCHAR
STARTCHAR 2212
ENCODING 8722
SWIDTH 523 0
DWIDTH 8 0
BBX 7 1 0 5
BITMAP
FE
ENDCHAR
STARTCHAR 2215
ENCODING 8725
SWIDTH 458 0
DWIDTH 7 0
BBX 6 12 0 -1
BITMAP
04
04
08
08
10
10
10
20
20
40
40
80
ENDCHAR
STARTCHAR 2219
ENCODING 8729
SWIDTH 523 0
DWIDTH 8 0
BBX 3 3 2 3
BITMAP
40
E0
60
ENDCHAR
STARTCHAR 2248
ENCODING 8776
SWIDTH 589 0
DWIDTH 9 0
BBX 7 5 1 1
BITMAP
62
9C
00
F2
8C
ENDCHAR
STARTCHAR 2260
ENCODING 8800
SWIDTH 523 0
DWIDTH 8 0
BBX 6 8 1 1
BITMAP
08
10
FC
20
20
FC
40
80
ENDCHAR
STARTCHAR 2264
ENCODING 8804
SWIDTH 523 0
DWIDTH 8 0
BBX 8 10 0 0
BITMAP
02
0C
30
40
60
18
06
00
00
FF
ENDCHAR
STARTCHAR 2265
ENCODING 8805
SWIDTH 523 0
DWIDTH 8 0
BBX 8 10 0 0
BITMAP
40
30
0C
02
04
38
40
00
00
FF
ENDCHAR
STARTCHAR FB01
ENCODING 64257
SWIDTH 523 0
DWIDTH 8 0
BBX 7 11 0 0
BITMAP
3A
20
40
40
F2
42
42
42
42
42
42
ENDCHAR
STARTCHAR FB02
ENCODING 64258
SWIDTH 523 0
DWIDTH 8 0
BBX 7 11 0 0
BITMAP
3A
22
42
42
F2
42
42
42
42
42
42
ENDCHAR
ENDFONT
